<?xml version="1.0" standalone="no"?>
<!DOCTYPE svg PUBLIC "-//W3C//DTD SVG 20010904//EN"
 "http://www.w3.org/TR/2001/REC-SVG-20010904/DTD/svg10.dtd">
<svg version="1.0" xmlns="http://www.w3.org/2000/svg"
 width="235.000000pt" height="300.000000pt" viewBox="0 0 235.000000 300.000000"
 preserveAspectRatio="xMidYMid meet">
<metadata>
Created by potrace 1.12, written by Peter Selinger 2001-2015
</metadata>
<g transform="translate(0.000000,300.000000) scale(0.100000,-0.100000)"
fill="#000000" stroke="none">
<path d="M1155 2962 c-22 -3 -26 -6 -13 -11 12 -4 15 -10 8 -20 -7 -12 -12
-12 -23 -3 -7 7 -17 9 -20 5 -4 -3 -7 2 -7 12 0 34 -10 8 -15 -37 -3 -33 0
-49 10 -58 9 -7 18 -10 22 -6 3 3 1 6 -5 6 -7 0 -12 7 -12 15 0 8 7 15 15 15
8 0 15 -9 15 -19 0 -30 17 -34 49 -12 34 24 45 56 25 72 -10 8 -14 8 -14 0 0
-6 -7 -11 -15 -11 -33 0 -3 46 35 53 l25 4 -25 0 c-14 0 -38 -2 -55 -5z m-17
-48 c25 -7 31 -34 7 -34 -8 0 -15 4 -15 9 0 5 -9 7 -20 4 -19 -5 -27 7 -13 20
8 8 12 8 41 1z m62 -28 c0 -8 -4 -17 -9 -21 -12 -7 -24 12 -16 25 9 15 25 12
25 -4z m-30 -24 c0 -13 -12 -22 -22 -16 -10 6 -1 24 13 24 5 0 9 -4 9 -8z"/>
<path d="M1008 2953 c12 -2 32 -2 45 0 12 2 2 4 -23 4 -25 0 -35 -2 -22 -4z"/>
<path d="M1268 2953 c6 -2 18 -2 25 0 6 3 1 5 -13 5 -14 0 -19 -2 -12 -5z"/>
<path d="M958 2943 c7 -3 16 -2 19 1 4 3 -2 6 -13 5 -11 0 -14 -3 -6 -6z"/>
<path d="M1390 2930 c34 -11 60 -11 35 0 -11 5 -29 8 -40 8 -16 0 -15 -2 5 -8z"/>
<path d="M855 2920 c-13 -5 -14 -9 -5 -9 8 0 24 4 35 9 13 5 14 9 5 9 -8 0
-24 -4 -35 -9z"/>
<path d="M1312 2880 c-6 -23 -6 -42 -1 -46 5 -3 9 4 9 15 0 13 7 21 18 22 10
0 12 3 5 6 -7 2 -13 11 -13 18 0 7 6 16 13 18 7 4 6 6 -4 6 -11 1 -20 -12 -27
-39z"/>
<path d="M752 2879 c-35 -17 -61 -33 -59 -35 2 -3 35 11 73 30 85 43 73 47
-14 5z"/>
<path d="M907 2902 c6 -4 14 -24 18 -45 4 -20 11 -37 16 -37 12 0 11 5 -3 51
-7 24 -17 39 -27 39 -11 0 -12 -3 -4 -8z"/>
<path d="M1437 2880 c3 -11 -2 -31 -11 -45 -13 -20 -14 -25 -2 -25 14 0 39 74
28 85 -12 12 -20 4 -15 -15z"/>
<path d="M1484 2871 c5 -7 1 -18 -7 -24 -10 -8 -12 -18 -7 -32 8 -19 9 -19 9
3 1 12 6 22 11 22 14 0 13 27 -2 36 -7 5 -8 3 -4 -5z"/>
<path d="M753 2844 c3 -3 29 -17 58 -30 41 -19 50 -21 45 -8 -3 8 -6 21 -6 27
0 8 -3 7 -9 -1 -7 -12 -14 -11 -39 2 -30 16 -61 22 -49 10z"/>
<path d="M654 2824 c-18 -14 -18 -15 4 -4 12 6 22 13 22 15 0 8 -5 6 -26 -11z"/>
<path d="M1096 2802 c-2 -4 12 -6 32 -4 56 5 62 10 15 11 -23 1 -44 -3 -47 -7z"/>
<path d="M681 2765 c12 -20 17 -40 13 -47 -6 -10 -4 -10 9 0 15 13 14 16 -6
48 -29 44 -42 44 -16 -1z"/>
<path d="M1000 2790 c-19 -7 -15 -8 18 -5 24 2 46 6 50 9 8 9 -39 5 -68 -4z"/>
<path d="M1238 2793 c7 -3 16 -2 19 1 4 3 -2 6 -13 5 -11 0 -14 -3 -6 -6z"/>
<path d="M1270 2787 c0 -10 10 -13 33 -11 22 3 36 -1 45 -13 6 -9 12 -12 12
-5 0 6 7 9 15 6 8 -4 13 -10 10 -14 -2 -4 7 -7 21 -7 15 0 31 -7 36 -14 7 -10
8 -9 4 6 -6 19 -5 19 8 2 7 -10 18 -17 22 -16 26 4 36 -1 25 -14 -6 -8 -8 -17
-5 -20 4 -3 -5 -12 -20 -18 -14 -7 -26 -16 -26 -20 0 -5 16 1 36 13 23 13 31
23 24 28 -8 5 -7 9 4 13 10 4 16 1 16 -9 0 -10 6 -14 15 -10 20 7 19 -11 -1
-22 -15 -8 -15 -10 0 -15 9 -4 15 -1 13 6 -1 6 9 12 23 14 14 1 17 -1 8 -3
-10 -3 -18 -12 -18 -19 0 -7 -6 -16 -12 -18 -8 -3 -5 -6 6 -6 16 -1 17 -3 5
-18 -13 -15 -12 -15 9 -5 64 33 61 33 56 5 -5 -24 -3 -25 13 -12 17 13 17 13
4 -4 -14 -17 -16 -17 -27 -3 -12 17 -29 22 -19 6 6 -10 -5 -13 -40 -11 -16 1
-15 -2 8 -14 30 -17 37 -31 10 -20 -29 12 -64 14 -57 4 3 -5 10 -7 15 -4 5 4
9 2 9 -4 0 -5 -6 -12 -12 -14 -10 -4 -10 -6 -1 -6 6 -1 15 4 18 9 3 6 11 10
16 10 6 0 7 -5 3 -12 -4 -6 -3 -8 4 -4 6 3 18 -4 27 -16 16 -22 16 -22 11 -2
-5 15 -2 21 9 21 9 0 14 -6 11 -13 -3 -8 0 -16 6 -20 7 -4 8 -3 4 4 -4 7 -1
12 8 12 8 0 18 -4 21 -10 3 -5 16 -10 28 -10 17 0 19 -2 7 -9 -8 -6 -18 -7
-22 -5 -4 3 -8 -1 -8 -8 0 -9 -3 -9 -10 2 -8 12 -10 12 -10 -5 0 -15 -3 -17
-9 -7 -7 11 -9 11 -14 -1 -4 -11 0 -15 14 -12 22 4 23 1 9 -26 -7 -13 -7 -19
0 -19 5 0 10 4 10 8 0 5 11 15 25 22 14 7 23 15 20 18 -2 3 -11 -1 -20 -8 -11
-9 -15 -9 -15 -1 0 20 32 25 45 8 7 -10 17 -17 23 -17 11 0 11 -18 -1 -37 -6
-9 -3 -11 7 -7 16 6 20 17 17 42 -1 6 2 12 8 12 20 0 41 -13 41 -25 0 -7 6
-16 13 -18 6 -3 -3 -6 -22 -6 -30 -1 -33 -3 -29 -26 3 -14 1 -25 -3 -25 -5 0
-9 -7 -9 -15 0 -8 5 -15 11 -15 5 0 7 5 3 12 -4 7 -3 8 4 4 19 -11 14 -26 -8
-26 -21 0 -21 -18 1 -77 5 -14 5 -23 -1 -23 -6 0 -10 -4 -10 -9 0 -6 9 -9 19
-8 17 1 19 8 15 52 -2 29 0 44 5 37 4 -7 6 -25 4 -40 -3 -23 -1 -22 10 7 l13
34 0 -52 c0 -50 -1 -52 -23 -48 -25 5 -26 2 -13 -28 7 -17 9 -17 9 -2 1 9 5
17 11 17 5 0 7 -8 4 -17 -5 -15 -3 -15 12 2 15 18 16 18 10 2 -3 -10 -6 -21
-6 -23 0 -2 -11 -4 -25 -4 -18 0 -25 5 -25 19 0 23 -16 36 -25 21 -3 -5 -1
-10 4 -10 6 0 11 -4 11 -10 0 -5 -6 -7 -14 -4 -11 4 -13 0 -9 -15 6 -22 33
-37 33 -18 0 8 4 6 10 -3 5 -8 10 -10 10 -3 0 6 8 9 19 6 10 -3 28 0 40 6 13
8 21 8 21 2 0 -15 -39 -33 -56 -27 -8 3 -14 1 -14 -4 0 -6 8 -10 18 -10 10 0
19 -7 19 -15 0 -18 -14 -20 -20 -2 -2 6 -4 0 -3 -15 0 -14 5 -24 10 -20 5 3 7
-2 3 -11 -3 -9 -1 -18 6 -20 7 -3 -6 -4 -28 -2 -36 2 -41 0 -43 -18 0 -12 2
-17 6 -12 4 6 19 11 34 11 24 1 27 -2 22 -22 -5 -19 -2 -24 12 -24 17 -1 17
-2 4 -13 -8 -7 -16 -23 -17 -37 -3 -25 -3 -25 7 -2 11 25 20 29 20 8 0 -8 -7
-22 -17 -31 -14 -14 -14 -18 -2 -26 11 -7 11 -9 -3 -9 -10 0 -18 -7 -18 -15 0
-9 -10 -15 -27 -16 l-28 -1 25 -8 c14 -4 19 -8 13 -9 -8 -1 -12 -13 -12 -28 2
-24 2 -25 6 -5 3 17 11 22 34 22 20 0 29 -5 29 -16 0 -8 5 -12 10 -9 15 10 12
-5 -6 -22 -12 -13 -15 -13 -14 -2 5 29 -1 39 -20 39 -24 0 -25 -13 -4 -44 10
-16 12 -26 5 -31 -7 -3 -11 3 -12 17 -1 23 -1 22 -8 -2 l-7 -25 -6 24 c-4 13
-11 20 -17 16 -6 -3 -11 2 -12 12 0 11 -3 13 -6 5 -4 -10 -8 -10 -19 -1 -19
16 -38 -1 -31 -27 4 -16 5 -15 6 4 0 12 6 22 12 22 6 0 9 -8 6 -19 -2 -10 1
-18 7 -18 41 1 46 -3 40 -35 -4 -28 -3 -30 5 -10 13 28 25 29 18 1 -3 -13 -1
-19 6 -16 7 2 12 9 12 15 0 5 3 14 8 18 4 4 7 2 7 -4 0 -7 5 -12 11 -12 6 0 9
7 5 15 -3 8 -1 15 4 15 6 0 10 -25 10 -55 0 -56 6 -65 28 -43 9 9 12 9 12 -1
0 -7 5 -9 11 -6 6 4 8 13 5 21 -3 7 0 16 6 20 7 4 6 10 -3 16 -11 8 -11 9 1 5
8 -2 15 -9 15 -15 0 -19 15 -26 16 -6 0 10 3 13 6 7 7 -18 23 -16 23 2 0 8 -7
15 -15 15 -8 0 -15 5 -15 11 0 5 5 7 10 4 6 -4 17 -1 25 5 8 7 15 9 15 4 0 -5
7 -1 15 10 9 12 20 16 31 12 16 -6 16 -8 -1 -20 -16 -12 -17 -15 -3 -34 8 -12
18 -19 23 -14 4 4 2 -3 -4 -15 -6 -13 -8 -23 -3 -23 5 0 9 -7 9 -16 0 -15 -2
-15 -13 1 -7 9 -10 23 -8 29 3 7 -2 13 -11 13 -9 0 -14 -6 -11 -12 3 -9 -41
-75 -69 -104 -2 -2 -3 6 -2 17 0 11 4 19 8 16 14 -8 46 45 44 71 -2 14 0 23 5
20 10 -6 18 16 12 33 -3 10 -10 5 -22 -13 -10 -16 -16 -35 -12 -43 4 -12 0
-14 -24 -8 -27 6 -28 5 -10 -9 10 -8 23 -12 29 -8 6 3 7 1 4 -4 -4 -6 -16 -13
-27 -16 -11 -3 -18 -2 -15 3 3 4 -1 10 -8 13 -9 3 -13 -2 -12 -16 1 -12 -5
-30 -13 -40 -13 -15 -18 -15 -37 -3 -19 13 -21 12 -23 -10 -1 -13 3 -24 8 -24
6 0 10 5 10 11 0 6 6 9 13 6 6 -2 11 -10 9 -17 -2 -8 5 -11 20 -7 22 6 22 5 4
-8 -10 -8 -16 -20 -13 -28 4 -11 0 -13 -14 -10 -10 3 -19 0 -19 -6 0 -6 7 -11
15 -11 8 0 15 -5 15 -10 0 -7 -8 -6 -22 1 -13 7 -24 12 -25 11 -12 -8 -13 1
-3 13 7 9 10 18 6 22 -3 3 -6 1 -6 -6 0 -7 -4 -9 -10 -6 -6 3 -10 -4 -10 -18
0 -14 -7 -30 -15 -37 -9 -8 -15 -9 -15 -2 0 6 5 14 10 17 6 3 10 17 10 31 0
13 5 24 11 24 6 0 3 7 -6 16 -15 15 -14 17 4 30 12 9 17 21 14 34 -5 17 -1 19
31 16 40 -3 42 -1 22 20 -13 12 -16 12 -25 -3 -10 -17 -11 -16 -17 5 -6 20
-26 33 -23 15 1 -5 1 -23 0 -40 -1 -34 -21 -48 -21 -15 0 14 -2 15 -9 2 -6 -8
-7 -18 -5 -22 3 -4 0 -8 -5 -8 -6 0 -11 8 -11 18 0 14 -2 15 -10 2 -5 -9 -5
-19 0 -25 6 -7 5 -16 -1 -22 -8 -8 -7 -13 2 -18 7 -5 10 -4 7 1 -3 5 0 15 8
22 8 7 14 9 15 5 6 -45 2 -76 -13 -95 -10 -13 -18 -17 -18 -10 0 7 -14 12 -35
12 -34 0 -49 20 -25 35 5 3 7 0 5 -7 -4 -9 3 -14 19 -16 14 -1 30 -3 37 -4 6
-2 12 7 14 20 1 12 -2 22 -7 22 -4 0 -8 -7 -8 -16 0 -8 -5 -12 -10 -9 -6 4 -8
11 -5 16 4 5 -1 9 -9 9 -9 0 -16 5 -16 10 0 6 5 10 10 10 6 0 10 5 10 11 0 5
-4 8 -8 5 -5 -3 -9 2 -9 10 0 10 4 11 11 4 22 -22 25 -8 4 20 -20 27 -23 29
-30 13 -6 -17 -7 -17 -7 0 -1 17 -3 16 -22 -2 -14 -12 -19 -26 -15 -37 4 -11
2 -15 -8 -11 -15 6 -31 -43 -17 -53 4 -3 7 -27 7 -53 -1 -41 -4 -49 -23 -53
-21 -6 -21 -8 -9 -33 23 -43 59 -71 84 -64 22 5 31 23 12 23 -5 0 -10 8 -9 18
0 10 3 12 6 5 2 -8 22 -13 44 -13 22 0 38 4 35 9 -3 5 1 11 9 14 10 4 12 1 8
-10 -5 -12 -2 -15 10 -10 9 3 17 2 17 -3 0 -6 -18 -10 -40 -10 -25 0 -40 -5
-40 -12 0 -9 -4 -8 -10 2 -8 12 -10 11 -10 -7 0 -13 6 -23 14 -23 8 0 18 -5
22 -12 4 -7 3 -8 -4 -4 -7 4 -12 2 -12 -3 0 -19 48 -12 53 6 4 17 5 17 6 1 1
-21 17 -24 25 -5 3 6 3 2 0 -10 -3 -15 -1 -23 8 -23 8 -1 6 -6 -6 -15 -13 -10
-25 -11 -42 -5 -15 6 -24 6 -24 0 0 -6 11 -15 25 -20 18 -7 23 -14 18 -27 -14
-36 -30 -59 -76 -107 -26 -27 -47 -55 -47 -63 0 -8 -11 -30 -24 -50 -14 -20
-31 -58 -37 -84 -11 -44 -16 -49 -46 -55 -27 -5 -37 -2 -52 17 -46 58 -60 73
-61 62 0 -7 14 -28 30 -46 l30 -35 -65 -7 c-72 -7 -112 8 -122 46 -3 10 -9 17
-13 14 -4 -3 -19 6 -31 20 -25 26 -39 31 -39 15 0 -5 15 -20 34 -32 41 -27 69
-70 60 -92 -7 -19 -24 -21 -24 -3 -1 16 -41 62 -63 70 -31 12 -18 -17 16 -34
40 -20 58 -75 37 -114 -7 -14 -19 -25 -26 -25 -8 0 -11 -6 -8 -15 4 -10 0 -15
-10 -15 -13 0 -15 6 -10 27 4 16 11 33 16 40 6 7 4 20 -4 35 -7 13 -14 25 -15
27 -1 1 -12 -4 -25 -13 l-22 -16 23 0 c22 0 23 -3 19 -44 -7 -61 -71 -149
-102 -141 -17 5 -18 4 -6 -4 8 -6 10 -11 4 -11 -6 0 -33 -21 -62 -47 -81 -76
-92 -84 -105 -76 -7 4 -7 0 2 -10 17 -22 40 -22 57 1 12 16 13 16 14 0 0 -9
-14 -23 -31 -32 -28 -14 -33 -14 -57 1 l-27 17 18 -21 c18 -21 18 -21 -4 -28
-29 -10 -59 26 -93 110 -33 81 -32 43 1 -45 4 -8 5 -21 4 -29 -1 -7 2 -10 8
-6 7 3 8 0 5 -9 -7 -18 -24 -22 -24 -5 0 5 -5 7 -10 4 -6 -3 -22 2 -38 13 -37
26 -94 53 -100 47 -2 -2 8 -10 24 -17 16 -7 31 -15 34 -19 3 -4 28 -18 55 -31
63 -32 192 -58 315 -65 83 -4 93 -3 78 10 -28 22 -22 79 8 84 6 1 9 -8 7 -22
-4 -18 -1 -23 14 -22 12 1 19 -6 21 -20 2 -13 7 -23 11 -23 4 0 6 13 3 30 -4
29 -3 30 37 27 32 -2 41 -6 41 -21 0 -12 5 -16 16 -12 9 3 19 6 22 6 4 0 1 4
-6 9 -10 6 -9 15 8 44 19 32 20 37 6 37 -9 0 -16 -4 -16 -10 0 -17 -49 -42
-73 -37 -26 7 -63 62 -47 72 5 3 10 0 10 -8 0 -8 6 -20 14 -26 12 -10 14 -9
11 6 -12 60 -14 83 -6 78 5 -3 12 -1 16 5 3 5 14 10 24 10 14 0 21 -11 27 -38
4 -22 9 -30 11 -19 5 20 39 23 46 5 3 -8 6 -6 6 5 1 9 8 17 16 17 19 0 19 -4
-1 -41 -8 -17 -14 -33 -12 -35 4 -4 95 189 117 249 8 19 8 34 1 47 -6 11 -7
34 -2 57 6 30 13 39 32 41 19 2 30 -5 43 -28 10 -16 26 -30 35 -30 14 1 13 4
-5 19 -14 11 -23 30 -23 46 0 37 20 106 37 126 7 8 13 20 13 26 0 6 28 37 63
68 54 50 56 52 10 15 -58 -45 -71 -43 -23 5 56 57 118 101 127 91 4 -3 12 -1
20 5 16 14 96 -5 114 -27 19 -23 25 -16 39 44 56 249 63 582 17 794 -43 196
-133 432 -221 581 -15 26 -32 44 -37 41 -5 -3 -9 -2 -8 3 4 21 -4 34 -48 83
-86 95 -265 206 -378 234 -113 27 -115 27 -115 13z m355 -137 c3 -6 -1 -7 -10
-4 -10 4 -15 2 -13 -6 2 -7 -3 -15 -9 -17 -7 -3 -13 2 -13 10 0 22 34 35 45
17z m-5 -91 c0 -7 10 -9 25 -5 18 5 25 2 25 -8 0 -8 -5 -18 -12 -22 -7 -5 -8
-3 -3 6 6 10 3 12 -11 8 -11 -3 -28 3 -38 14 -17 16 -18 18 -3 18 9 0 17 -5
17 -11z m120 -29 c0 -5 -9 -6 -21 -3 -12 4 -25 0 -30 -8 -7 -11 -9 -11 -9 3 0
9 6 18 13 21 16 5 47 -3 47 -13z m20 -18 c0 -2 -6 -9 -13 -16 -11 -11 -17 -11
-30 -1 -24 17 -21 22 13 21 16 -1 30 -2 30 -4z m33 -49 c-5 -12 -7 -12 -14 -1
-13 20 -11 28 5 22 8 -3 12 -12 9 -21z m-38 -4 c11 -17 -1 -21 -15 -4 -8 9 -8
15 -2 15 6 0 14 -5 17 -11z m79 -106 c-3 -16 -10 -32 -15 -38 -7 -6 -7 0 0 18
9 24 8 27 -12 28 -21 0 -21 1 -2 9 31 13 34 12 29 -17z m23 -5 c-3 -7 -5 -2
-5 12 0 14 2 19 5 13 2 -7 2 -19 0 -25z m3 -28 c0 -5 -5 -10 -11 -10 -5 0 -7
5 -4 10 3 6 8 10 11 10 2 0 4 -4 4 -10z m17 -72 c-4 -9 -6 -8 -6 3 -1 9 -8 19
-16 23 -8 3 -15 10 -15 16 0 6 9 2 21 -9 12 -11 19 -25 16 -33z m-90 10 c-3
-8 -6 -5 -6 6 -1 11 2 17 5 13 3 -3 4 -12 1 -19z m74 -65 c-12 -20 -14 -14 -5
12 4 9 9 14 11 11 3 -2 0 -13 -6 -23z m49 -7 c0 -2 -7 -6 -15 -10 -8 -3 -15
-1 -15 4 0 6 7 10 15 10 8 0 15 -2 15 -4z m56 -103 c1 -24 -3 -43 -9 -43 -5 0
-7 9 -4 19 3 14 0 19 -13 18 -15 -1 -16 -5 -9 -19 6 -12 6 -18 -1 -18 -5 0
-10 6 -10 13 0 8 -4 7 -10 -3 -8 -13 -10 -13 -10 2 0 9 7 23 15 32 8 8 15 17
15 20 0 3 -7 6 -15 6 -8 0 -15 4 -15 8 0 4 15 8 33 7 31 0 32 -2 33 -42z m21
5 c-3 -8 -6 -5 -6 6 -1 11 2 17 5 13 3 -3 4 -12 1 -19z m-83 -76 c3 -5 -1 -9
-9 -9 -8 0 -12 4 -9 9 3 4 7 8 9 8 2 0 6 -4 9 -8z m-21 -42 c3 -11 1 -18 -4
-14 -5 3 -9 -2 -9 -10 0 -9 -4 -16 -9 -16 -6 0 -6 12 0 30 13 35 15 36 22 10z
m52 -38 c-8 -2 -15 -10 -15 -18 0 -8 -4 -14 -10 -14 -11 0 -2 29 14 46 8 9 13
9 18 0 4 -6 1 -12 -7 -14z m59 13 c-4 -8 -8 -15 -10 -15 -2 0 -4 7 -4 15 0 8
4 15 10 15 5 0 7 -7 4 -15z m-46 -100 c-6 -14 -13 -23 -15 -21 -5 5 15 46 22
46 3 0 -1 -11 -7 -25z m56 11 c-4 -10 3 -16 23 -19 27 -4 27 -4 -4 -6 -31 -1
-44 15 -26 32 10 11 13 8 7 -7z m-84 -4 c0 -5 -7 -17 -16 -28 -8 -10 -14 -14
-11 -9 2 6 7 18 10 28 7 17 17 23 17 9z m-34 -18 c-3 -9 -6 -24 -6 -35 0 -10
-4 -19 -8 -19 -4 0 -6 16 -4 35 2 19 9 35 14 35 6 0 7 -7 4 -16z m69 -52 c-10
-10 -16 -12 -13 -7 3 6 8 19 13 30 5 14 9 16 12 7 3 -8 -3 -21 -12 -30z m52
18 c-1 -11 -7 -22 -14 -24 -16 -6 -16 -1 -3 25 14 24 19 24 17 -1z m-92 -10
c3 -6 -1 -7 -9 -4 -18 7 -21 14 -7 14 6 0 13 -4 16 -10z m-50 -22 c5 -4 0 -6
-12 -6 -13 1 -19 7 -16 15 3 8 8 10 12 6 3 -4 10 -11 16 -15z m33 -23 c-3 -3
-9 2 -12 12 -6 14 -5 15 5 6 7 -7 10 -15 7 -18z m136 0 c11 -8 16 -15 10 -15
-5 0 -18 7 -28 15 -11 8 -16 15 -10 15 5 0 18 -7 28 -15z m-54 -19 c0 -3 -4
-8 -10 -11 -5 -3 -10 -1 -10 4 0 6 5 11 10 11 6 0 10 -2 10 -4z m83 -18 c4 1
7 -3 7 -9 0 -6 -6 -8 -12 -5 -7 3 -21 9 -30 12 -10 4 -18 10 -18 16 0 5 10 3
23 -4 12 -7 25 -11 30 -10z m-143 -14 c8 -8 9 -14 4 -13 -5 1 -11 1 -14 -1 -3
-1 -15 -3 -28 -6 -19 -3 -21 -2 -10 10 7 7 19 11 27 8 9 -3 12 -1 7 6 -10 17
-1 15 14 -4z m100 -4 c0 -5 -7 -7 -15 -4 -8 4 -15 8 -15 10 0 2 7 4 15 4 8 0
15 -4 15 -10z m-25 -15 c11 1 26 5 34 9 9 6 12 5 9 -5 -3 -9 -16 -13 -34 -11
-20 2 -25 0 -15 -6 21 -15 -1 -19 -35 -8 -23 8 -28 14 -20 22 6 7 18 9 26 5 8
-3 24 -6 35 -6z m-94 -38 c-10 -9 -11 -8 -5 6 3 10 9 15 12 12 3 -3 0 -11 -7
-18z m19 -21 c0 -2 -8 -10 -17 -17 -16 -13 -17 -12 -4 4 13 16 21 21 21 13z
m152 -100 c7 4 8 2 4 -5 -9 -13 -26 -5 -25 12 0 9 2 8 6 -1 2 -6 10 -9 15 -6z
m-332 -51 c0 -2 -9 -3 -19 -2 -11 0 -18 5 -15 9 4 6 34 0 34 -7z m295 5 c4 -6
1 -9 -6 -8 -6 2 -14 -3 -16 -9 -3 -7 2 -13 11 -13 9 0 16 -4 16 -9 0 -5 -7 -8
-16 -7 -9 0 -19 -5 -22 -13 -3 -9 0 -11 8 -6 9 6 10 3 2 -12 -7 -12 -7 -25 0
-38 9 -17 7 -17 -11 3 -12 12 -31 22 -41 22 -14 0 -19 6 -17 20 2 11 7 23 12
27 4 5 5 2 1 -4 -14 -25 5 -13 35 22 34 39 35 39 44 25z m-340 -50 c-3 -5 -1
-10 4 -10 6 0 11 -11 11 -25 0 -14 -5 -25 -11 -25 -6 0 -9 9 -6 20 3 11 1 20
-4 20 -5 0 -9 7 -9 15 0 8 5 15 11 15 5 0 7 -4 4 -10z m354 -41 c-15 -9 -32
-2 -24 11 3 5 13 6 21 3 12 -4 13 -8 3 -14z m-99 -19 c0 -5 -4 -10 -10 -10 -5
0 -10 5 -10 10 0 6 5 10 10 10 6 0 10 -4 10 -10z m-157 -35 c25 3 27 1 26 -33
-2 -33 -2 -34 -6 -8 -4 22 -7 26 -14 15 -6 -10 -9 -10 -9 -1 0 7 -15 12 -37
13 -21 1 -30 3 -20 6 9 2 17 10 17 16 0 9 2 9 8 1 4 -7 19 -10 35 -9z m54 -17
c-3 -8 -6 -5 -6 6 -1 11 2 17 5 13 3 -3 4 -12 1 -19z m33 3 c0 -6 -4 -13 -10
-16 -5 -3 -10 1 -10 9 0 9 5 16 10 16 6 0 10 -4 10 -9z m35 -9 c-3 -3 -11 0
-18 7 -9 10 -8 11 6 5 10 -3 15 -9 12 -12z m-131 -17 c19 -8 19 -9 0 -16 -28
-11 -76 -11 -69 1 3 5 12 7 20 3 18 -6 20 13 3 21 -7 2 -4 3 7 2 11 -2 29 -7
39 -11z m-107 -19 c0 -8 -6 -12 -15 -9 -11 5 -11 7 0 14 7 5 13 9 14 9 0 0 1
-6 1 -14z m173 4 c0 -5 -2 -10 -4 -10 -3 0 -8 5 -11 10 -3 6 -1 10 4 10 6 0
11 -4 11 -10z m-132 -60 c-2 -6 -11 -4 -23 5 -17 14 -17 16 -2 11 9 -3 17 0
18 7 0 9 2 9 6 0 2 -7 3 -18 1 -23z m308 -32 c0 -7 4 -14 9 -15 6 -1 8 6 7 15
-3 14 -1 14 9 5 10 -10 9 -16 -5 -32 -10 -11 -16 -24 -13 -28 3 -5 2 -15 -4
-23 -6 -11 -9 -12 -9 -2 0 7 -4 11 -10 7 -5 -3 -7 -12 -4 -20 4 -8 11 -12 17
-8 6 3 7 1 3 -6 -4 -6 -13 -9 -19 -5 -7 3 -3 -2 7 -10 11 -9 21 -26 23 -38 2
-18 1 -20 -6 -8 -5 8 -8 17 -5 21 7 11 -23 18 -33 8 -6 -6 -10 -5 -10 3 0 7
-4 22 -8 33 -5 16 -5 17 4 5 9 -12 17 -9 9 4 -2 2 4 12 13 22 17 20 22 54 7
54 -7 0 -12 -15 -10 -32 1 -3 -6 -12 -16 -20 -15 -12 -16 -11 -3 5 13 17 12
18 -14 13 -15 -3 -25 -2 -21 1 4 4 13 8 22 9 8 1 24 14 35 28 23 29 27 32 25
14z m-96 -17 c0 -6 -4 -13 -10 -16 -5 -3 -10 1 -10 9 0 9 5 16 10 16 6 0 10
-4 10 -9z m2 -62 c-26 -10 -44 0 -29 16 9 9 16 9 29 1 17 -10 17 -11 0 -17z
m-492 -435 c0 -3 -7 -12 -15 -20 -12 -13 -15 -13 -15 -1 0 7 3 17 7 20 8 8 23
9 23 1z m60 -49 c0 -30 3 -55 8 -55 12 0 29 34 26 53 -1 9 2 15 7 11 5 -3 7
-9 4 -14 -3 -5 0 -12 7 -16 8 -5 6 -9 -6 -14 -17 -6 -17 -7 -2 -23 19 -19 13
-62 -7 -50 -7 4 -5 -2 3 -12 9 -11 10 -16 3 -11 -8 4 -13 2 -13 -6 0 -8 -5 -6
-11 5 -6 9 -8 26 -4 36 3 11 1 22 -5 26 -6 3 -10 -4 -10 -17 -1 -52 -13 -134
-22 -145 -12 -16 -36 -6 -43 18 -4 10 -11 19 -17 19 -6 0 -6 -6 2 -15 18 -22
4 -31 -24 -16 -35 19 -69 10 -84 -22 -18 -37 -28 -27 -14 12 14 38 7 40 -12 4
-7 -16 -12 -43 -11 -61 1 -18 0 -34 -4 -37 -13 -7 -145 15 -156 27 -7 8 -4 9
13 5 15 -3 22 -1 22 9 0 8 10 15 23 15 20 1 20 2 2 6 -41 10 -32 18 15 15 29
-2 50 -9 50 -15 0 -7 5 -4 11 6 6 10 8 25 5 33 -3 8 1 14 10 14 8 0 12 5 9 10
-3 6 1 10 9 10 15 0 38 31 35 47 -2 7 12 40 61 148 7 16 9 11 9 -24 1 -49 12
-51 13 -2 1 18 6 31 14 31 7 0 15 6 18 13 3 6 3 -4 0 -23 l-5 -34 24 24 c13
14 22 28 20 33 -2 4 1 7 7 7 7 0 10 7 6 15 -3 8 -1 15 4 15 6 0 10 -25 10 -55z
m-203 -145 c-6 -16 -15 -30 -18 -30 -4 0 -2 14 4 30 6 17 15 30 18 30 4 0 2
-13 -4 -30z m-57 -74 c0 -3 -4 -8 -10 -11 -5 -3 -10 -1 -10 4 0 6 5 11 10 11
6 0 10 -2 10 -4z m-50 -120 c0 -3 -4 -8 -10 -11 -5 -3 -10 -1 -10 4 0 6 5 11
10 11 6 0 10 -2 10 -4z m-80 -57 c0 -11 -4 -18 -10 -14 -5 3 -7 12 -3 20 7 21
13 19 13 -6z m69 9 c-3 -25 1 -37 14 -41 6 -2 3 -3 -8 -1 -11 2 -30 4 -43 4
-15 0 -22 5 -19 13 2 6 12 11 21 9 9 -2 16 1 15 5 -3 15 1 23 11 23 6 0 10 -6
9 -12z m31 -8 c0 -5 -8 -10 -17 -10 -15 0 -16 2 -3 10 19 12 20 12 20 0z"/>
<path d="M1946 2103 c-6 -14 -5 -15 5 -6 7 7 10 15 7 18 -3 3 -9 -2 -12 -12z"/>
<path d="M1973 1415 c-12 -14 -18 -25 -13 -25 5 0 17 -3 27 -6 14 -5 15 -4 3
4 -12 9 -12 14 4 31 11 12 15 21 10 21 -5 0 -19 -12 -31 -25z"/>
<path d="M579 2773 c-13 -16 -12 -17 4 -4 16 13 21 21 13 21 -2 0 -10 -8 -17
-17z"/>
<path d="M1490 2780 c8 -5 20 -10 25 -10 6 0 3 5 -5 10 -8 5 -19 10 -25 10 -5
0 -3 -5 5 -10z"/>
<path d="M875 2755 c-39 -17 -21 -18 25 0 19 7 28 14 20 14 -8 0 -28 -6 -45
-14z"/>
<path d="M800 2750 c-8 -5 -10 -10 -5 -10 6 0 17 5 25 10 8 5 11 10 5 10 -5 0
-17 -5 -25 -10z"/>
<path d="M1703 2705 c-6 -25 -7 -45 -2 -45 8 0 24 79 17 86 -3 2 -9 -16 -15
-41z"/>
<path d="M565 2731 c-3 -5 6 -26 19 -46 13 -19 27 -32 30 -27 3 5 -5 19 -19
32 -13 12 -21 28 -18 36 6 16 -3 19 -12 5z"/>
<path d="M1567 2719 c7 -7 15 -10 18 -7 3 3 -2 9 -12 12 -14 6 -15 5 -6 -5z"/>
<path d="M1656 2714 c-11 -8 -16 -14 -10 -14 13 0 39 18 34 24 -3 2 -14 -2
-24 -10z"/>
<path d="M455 2658 l-40 -43 43 40 c23 21 42 40 42 42 0 8 -9 0 -45 -39z"/>
<path d="M735 2690 c-3 -6 1 -7 9 -4 18 7 21 14 7 14 -6 0 -13 -4 -16 -10z"/>
<path d="M1781 2653 c-13 -47 -14 -60 -2 -47 10 10 25 84 17 84 -3 0 -10 -17
-15 -37z"/>
<path d="M659 2663 c-13 -16 -12 -17 4 -4 9 7 17 15 17 17 0 8 -8 3 -21 -13z"/>
<path d="M663 2641 c-26 -21 -70 -63 -98 -92 -40 -43 -35 -40 25 16 41 39 89
80 105 92 17 12 27 22 23 22 -3 1 -28 -16 -55 -38z"/>
<path d="M1739 2633 c-13 -16 -12 -17 4 -4 9 7 17 15 17 17 0 8 -8 3 -21 -13z"/>
<path d="M1526 2625 c-3 -8 -1 -15 4 -15 6 0 10 7 10 15 0 8 -2 15 -4 15 -2 0
-6 -7 -10 -15z"/>
<path d="M1690 2636 c0 -2 8 -10 18 -17 15 -13 16 -12 3 4 -13 16 -21 21 -21
13z"/>
<path d="M1813 2606 c-15 -13 -25 -27 -22 -30 3 -3 18 8 34 24 35 36 27 40
-12 6z"/>
<path d="M457 2597 c2 -4 17 -6 33 -5 16 1 27 6 24 10 -3 4 -18 6 -33 5 -16
-1 -27 -5 -24 -10z"/>
<path d="M1198 2573 c18 -2 45 -2 60 0 15 2 0 4 -33 4 -33 0 -45 -2 -27 -4z"/>
<path d="M495 2560 c-16 -7 -17 -9 -3 -9 9 -1 20 4 23 9 7 11 7 11 -20 0z"/>
<path d="M1862 2545 c-18 -13 -29 -26 -24 -29 5 -3 24 8 43 24 40 35 28 38
-19 5z"/>
<path d="M1035 2540 c-3 -6 1 -7 9 -4 18 7 21 14 7 14 -6 0 -13 -4 -16 -10z"/>
<path d="M1902 2525 c-11 -12 -10 -15 3 -15 8 0 15 7 15 15 0 18 -2 18 -18 0z"/>
<path d="M958 2501 c-114 -73 -182 -185 -199 -329 -8 -63 -8 -100 0 -128 7
-25 7 -42 1 -48 -6 -6 -10 -27 -10 -48 0 -41 34 -88 64 -88 16 0 69 -98 60
-111 -8 -14 -58 -10 -80 5 -17 13 -16 14 19 6 20 -4 37 -6 37 -4 0 2 -21 13
-46 24 -55 26 -99 24 -99 -5 0 -29 55 -61 136 -79 90 -20 92 -20 79 4 -7 14
-7 20 0 20 5 0 10 -4 10 -9 0 -5 9 -7 21 -4 13 4 27 -2 40 -16 13 -14 15 -21
7 -22 -7 0 30 -13 82 -28 52 -15 113 -37 135 -48 98 -51 215 -91 215 -74 0 5
-14 13 -32 16 -17 4 -38 14 -46 21 -7 8 -18 11 -24 8 -6 -4 -13 -3 -17 2 -10
14 -85 48 -100 45 -7 -1 -10 2 -6 8 4 7 0 8 -11 4 -13 -5 -15 -3 -9 7 5 8 4
11 -3 6 -14 -9 -92 16 -92 29 0 6 5 16 11 22 9 9 7 10 -9 6 -12 -3 -19 -10
-16 -15 4 -6 -2 -5 -14 1 -30 16 -40 13 -18 -4 23 -17 14 -20 -15 -5 -33 18
-67 110 -40 110 5 0 11 8 15 18 3 9 9 24 13 32 4 11 2 10 -11 -2 -22 -22 -35
-16 -69 33 -36 53 -43 90 -23 122 14 21 14 25 3 30 -8 3 -14 0 -14 -6 0 -7 -6
-27 -13 -44 -14 -33 -27 -40 -46 -25 -5 4 -2 0 7 -8 8 -9 16 -24 16 -34 0 -17
-1 -17 -12 -2 -13 17 -30 23 -20 6 3 -6 -5 -10 -19 -10 -28 0 -56 33 -56 65 1
15 5 12 21 -15 11 -19 17 -26 13 -15 -4 11 -8 35 -10 53 -2 29 0 32 20 26 17
-5 19 -4 9 7 -15 16 -17 33 -3 24 6 -3 10 3 10 15 0 12 4 19 8 16 5 -3 9 1 9
8 0 8 -9 11 -24 8 -12 -2 -20 -8 -17 -13 3 -5 0 -9 -5 -9 -16 0 -13 20 4 26
14 6 16 14 15 82 0 38 7 41 20 7 5 -14 14 -25 20 -25 14 0 -8 37 -40 68 -14
14 -18 19 -9 13 14 -9 18 -8 22 9 3 11 1 18 -4 14 -13 -8 -29 5 -23 19 2 7 16
13 30 13 28 2 41 10 31 20 -4 4 -13 1 -22 -6 -9 -8 -15 -8 -15 -2 0 6 9 14 20
17 21 7 26 20 11 29 -5 4 -12 1 -14 -4 -3 -6 -4 -5 -3 2 2 7 9 12 16 10 7 -1
18 2 24 8 7 5 16 7 20 3 4 -4 4 -1 1 8 -7 19 19 54 34 45 6 -4 9 -11 6 -16 -3
-5 -1 -11 4 -14 5 -4 8 2 6 11 -2 10 -4 18 -5 18 -1 0 -3 8 -5 18 -2 9 1 17 6
17 5 0 9 7 9 15 0 8 17 26 37 40 52 35 27 32 -29 -4z m-83 -121 c-3 -5 -12
-10 -18 -10 -7 0 -6 4 3 10 19 12 23 12 15 0z m-75 -226 c0 -13 -4 -24 -10
-24 -5 0 -10 14 -10 31 0 17 4 28 10 24 6 -3 10 -17 10 -31z m-5 -44 c3 -5 1
-10 -4 -10 -6 0 -11 5 -11 10 0 6 2 10 4 10 3 0 8 -4 11 -10z m77 -265 c3 -13
1 -22 -3 -19 -9 5 -13 44 -5 44 2 0 6 -11 8 -25z m50 2 c-1 -4 4 -15 13 -23
21 -22 10 -34 -19 -21 -16 8 -22 17 -18 31 3 13 1 17 -6 12 -7 -4 -12 -2 -12
4 0 6 10 10 23 8 12 -2 21 -7 19 -11z m48 -107 c0 -6 -5 -10 -11 -10 -5 0 -7
5 -4 10 3 6 -1 10 -9 10 -9 0 -16 5 -16 10 0 7 6 7 20 0 11 -6 20 -15 20 -20z
m-80 -20 c0 -13 -5 -18 -15 -14 -16 7 -19 17 -8 27 12 13 23 7 23 -13z"/>
<path d="M1872 2483 c5 -7 14 -10 19 -7 16 10 9 23 -10 21 -15 -1 -17 -4 -9
-14z"/>
<path d="M365 2482 c15 -15 75 -26 75 -13 0 5 -8 9 -17 9 -10 -1 -29 2 -43 6
-17 6 -22 5 -15 -2z"/>
<path d="M1557 2483 c8 -3 11 -15 8 -31 -5 -26 -5 -26 5 -4 11 26 6 42 -13 41
-9 0 -9 -2 0 -6z"/>
<path d="M1585 2449 c-4 -6 -5 -12 -2 -15 2 -3 7 2 10 11 7 17 1 20 -8 4z"/>
<path d="M1928 2442 c-26 -15 -37 -32 -22 -32 9 0 74 41 74 46 0 9 -27 2 -52
-14z"/>
<path d="M1633 2415 c-3 -9 -3 -18 -1 -21 3 -3 8 4 11 16 6 23 -1 27 -10 5z"/>
<path d="M1790 2421 c0 -5 5 -13 10 -16 6 -3 10 -2 10 4 0 5 -4 13 -10 16 -5
3 -10 2 -10 -4z"/>
<path d="M1977 2413 c-4 -3 -7 -11 -7 -17 0 -6 5 -5 12 2 6 6 9 14 7 17 -3 3
-9 2 -12 -2z"/>
<path d="M1940 2390 c0 -11 2 -20 4 -20 2 0 6 9 9 20 3 11 1 20 -4 20 -5 0 -9
-9 -9 -20z"/>
<path d="M1735 2359 c-4 -6 -5 -12 -2 -15 2 -3 7 2 10 11 7 17 1 20 -8 4z"/>
<path d="M312 2344 c9 -9 21 -15 27 -13 6 2 -2 10 -17 17 -25 11 -25 11 -10
-4z"/>
<path d="M1700 2344 c0 -8 5 -12 10 -9 6 3 10 10 10 16 0 5 -4 9 -10 9 -5 0
-10 -7 -10 -16z"/>
<path d="M1751 2334 c0 -11 3 -14 6 -6 3 7 2 16 -1 19 -3 4 -6 -2 -5 -13z"/>
<path d="M880 2308 c-10 -22 -10 -22 4 -4 8 10 19 15 25 11 6 -3 11 -1 11 4 0
20 -29 11 -40 -11z"/>
<path d="M1998 2319 c-10 -5 -18 -15 -18 -22 0 -8 3 -9 8 -1 4 6 16 16 27 22
11 6 16 11 10 11 -5 0 -18 -4 -27 -10z"/>
<path d="M1725 2302 c5 -42 35 -73 35 -37 0 8 -5 15 -11 15 -6 0 -9 6 -6 14 3
8 0 17 -7 19 -7 3 -12 -2 -11 -11z"/>
<path d="M270 2296 c0 -2 8 -10 18 -17 15 -13 16 -12 3 4 -13 16 -21 21 -21
13z"/>
<path d="M1650 2279 c0 -5 5 -7 10 -4 6 3 10 8 10 11 0 2 -4 4 -10 4 -5 0 -10
-5 -10 -11z"/>
<path d="M215 2269 c-4 -6 -5 -12 -2 -15 2 -3 7 2 10 11 7 17 1 20 -8 4z"/>
<path d="M861 2264 c0 -11 3 -14 6 -6 3 7 2 16 -1 19 -3 4 -6 -2 -5 -13z"/>
<path d="M2050 2272 c0 -18 -39 -25 -58 -10 -15 12 -16 11 -3 -4 7 -10 21 -18
31 -18 20 0 46 27 36 37 -3 3 -6 1 -6 -5z"/>
<path d="M1670 2260 c0 -5 5 -10 11 -10 5 0 7 5 4 10 -3 6 -8 10 -11 10 -2 0
-4 -4 -4 -10z"/>
<path d="M1951 2265 c0 -5 6 -21 14 -35 8 -14 14 -20 14 -15 0 6 -6 21 -14 35
-8 14 -14 21 -14 15z"/>
<path d="M240 2238 c0 -5 18 -8 40 -8 22 0 40 4 40 8 0 4 -18 8 -40 7 -22 0
-40 -3 -40 -7z"/>
<path d="M346 2235 c-9 -26 -7 -32 5 -12 6 10 9 21 6 23 -2 3 -7 -2 -11 -11z"/>
<path d="M1756 2205 c-3 -9 -10 -13 -16 -10 -5 3 -10 1 -10 -4 0 -17 27 -13
34 5 4 9 5 19 2 21 -2 2 -6 -3 -10 -12z"/>
<path d="M2070 2161 c-12 -24 -13 -34 -1 -27 9 6 22 46 15 46 -2 0 -8 -9 -14
-19z"/>
<path d="M1423 2163 c9 -2 23 -2 30 0 6 3 -1 5 -18 5 -16 0 -22 -2 -12 -5z"/>
<path d="M223 2143 c9 -2 23 -2 30 0 6 3 -1 5 -18 5 -16 0 -22 -2 -12 -5z"/>
<path d="M2000 2145 c0 -5 5 -17 10 -25 5 -8 10 -10 10 -5 0 6 -5 17 -10 25
-5 8 -10 11 -10 5z"/>
<path d="M1086 2131 c-16 -6 -17 -9 -5 -13 8 -3 23 0 34 8 21 16 5 18 -29 5z"/>
<path d="M161 2123 c-1 -6 -4 -20 -7 -30 -5 -17 -5 -17 6 0 6 10 9 23 6 30 -3
9 -5 9 -5 0z"/>
<path d="M244 2101 c20 -22 26 -25 26 -13 0 4 -10 13 -22 21 -23 14 -23 14 -4
-8z"/>
<path d="M1146 2111 c-3 -5 1 -11 9 -14 9 -4 12 -1 8 9 -6 16 -10 17 -17 5z"/>
<path d="M917 2097 c-3 -8 1 -14 9 -14 16 0 19 13 5 21 -5 3 -11 0 -14 -7z"/>
<path d="M1369 2103 c-11 -3 -15 -11 -12 -24 4 -14 0 -19 -13 -19 -16 0 -17 2
-4 10 11 7 -3 9 -45 9 -33 -1 -52 -3 -42 -6 9 -2 17 -8 17 -11 0 -12 101 -13
118 -1 15 10 15 10 0 5 -12 -3 -18 0 -18 9 0 8 8 19 18 24 17 11 10 12 -19 4z"/>
<path d="M1462 2098 c-7 -7 -12 -16 -12 -20 0 -15 15 -8 28 12 13 22 3 27 -16
8z"/>
<path d="M1035 2087 c-12 -10 -14 -16 -7 -21 7 -4 12 -2 12 4 0 7 8 9 20 5 11
-3 28 -1 37 5 15 9 13 10 -10 5 -19 -4 -26 -2 -22 5 9 14 -8 13 -30 -3z"/>
<path d="M1420 2080 c-9 -6 -10 -10 -3 -10 6 0 15 5 18 10 8 12 4 12 -15 0z"/>
<path d="M306 2064 c-4 -9 -4 -19 -1 -22 2 -3 7 3 11 12 4 9 4 19 1 22 -2 3
-7 -3 -11 -12z"/>
<path d="M2105 2045 c-16 -7 -33 -11 -37 -9 -4 3 -5 -2 -2 -10 5 -12 9 -12 32
0 15 8 33 14 40 14 6 0 12 5 12 10 0 13 -7 12 -45 -5z"/>
<path d="M1001 2034 c0 -11 3 -14 6 -6 3 7 2 16 -1 19 -3 4 -6 -2 -5 -13z"/>
<path d="M131 2014 c0 -11 3 -14 6 -6 3 7 2 16 -1 19 -3 4 -6 -2 -5 -13z"/>
<path d="M950 1990 c19 -13 30 -13 30 0 0 6 -10 10 -22 10 -19 0 -20 -2 -8
-10z"/>
<path d="M116 1954 c-4 -20 -5 -38 -3 -40 3 -3 8 11 11 32 4 20 5 38 3 40 -3
3 -8 -11 -11 -32z"/>
<path d="M281 1974 c0 -11 3 -14 6 -6 3 7 2 16 -1 19 -3 4 -6 -2 -5 -13z"/>
<path d="M790 1976 c0 -8 9 -24 21 -37 l20 -24 -16 27 c-9 15 -14 32 -10 38 3
5 1 10 -4 10 -6 0 -11 -6 -11 -14z"/>
<path d="M957 1953 c-14 -13 -6 -43 13 -53 14 -7 20 -7 20 0 0 5 -5 10 -11 10
-7 0 -9 10 -7 25 5 24 -2 32 -15 18z"/>
<path d="M2132 1932 c-33 -27 -34 -42 -3 -42 13 0 13 2 2 9 -10 6 -6 13 18 27
17 10 31 22 31 26 0 14 -14 8 -48 -20z"/>
<path d="M254 1853 c-27 -137 -27 -449 0 -618 18 -114 33 -171 37 -135 6 61 5
81 -3 87 -6 3 -4 9 3 14 10 6 11 9 2 9 -7 0 -13 5 -13 10 0 6 8 5 21 -2 17
-11 22 -10 34 6 10 14 12 23 4 32 -7 8 -6 14 3 17 9 4 9 6 1 6 -18 1 -27 -20
-13 -29 8 -5 4 -8 -13 -7 -17 1 -22 6 -16 13 9 11 2 24 -13 24 -5 0 -7 -4 -3
-9 3 -5 1 -12 -4 -15 -5 -4 -8 2 -6 11 1 10 -3 24 -9 32 -7 9 -1 8 17 -4 15
-10 30 -15 33 -13 3 3 -10 15 -28 27 -41 25 -31 28 14 3 38 -21 75 -36 66 -26
-4 4 -3 15 2 25 7 12 7 20 0 24 -12 7 -4 25 11 25 6 0 7 -4 4 -10 -3 -5 -1
-10 4 -10 16 0 13 20 -4 26 -8 4 -12 10 -9 15 3 5 -3 6 -12 2 -12 -5 -15 -3
-9 6 6 10 3 11 -13 2 -18 -10 -20 -8 -17 9 4 19 -4 24 -35 21 -11 -1 -10 1 3
9 9 6 14 16 11 22 -4 7 -2 8 5 4 6 -4 9 -12 6 -17 -4 -5 -2 -9 4 -9 27 0 17
22 -24 51 -47 34 -59 47 -26 30 10 -6 22 -7 26 -3 5 4 5 2 1 -5 -4 -7 2 -17
14 -23 14 -8 20 -8 20 0 0 6 4 9 9 6 11 -7 9 13 -2 32 -10 14 -2 15 22 2 15
-8 18 -5 17 16 -1 14 -8 29 -16 34 -20 12 -20 31 -1 55 16 20 16 20 -6 1 -13
-10 -20 -23 -16 -29 3 -5 0 -7 -8 -5 -8 3 -13 10 -12 16 2 7 -4 9 -14 5 -10
-4 -14 -2 -9 5 9 15 -7 23 -24 11 -13 -7 -13 -9 0 -9 13 0 13 -2 0 -11 -13 -9
-12 -10 3 -5 10 3 16 2 12 -4 -4 -6 2 -7 12 -4 15 5 16 4 3 -5 -13 -10 -12
-11 4 -9 14 2 20 -4 23 -24 2 -17 -1 -28 -8 -28 -6 0 -9 6 -6 14 3 8 -4 21
-18 30 -31 20 -41 20 -25 1 7 -8 9 -15 4 -15 -5 0 2 -9 16 -20 14 -11 20 -20
14 -20 -6 0 -17 7 -24 15 -15 18 -34 20 -24 3 4 -7 3 -9 -1 -5 -12 10 -15 37
-5 37 4 0 6 14 5 30 -1 17 2 33 7 36 5 3 1 16 -9 27 -9 12 -11 16 -3 10 8 -7
23 -13 34 -13 20 1 20 1 3 14 -16 12 -16 14 -2 20 9 3 14 2 11 -2 -3 -5 1 -9
9 -9 9 0 11 4 6 11 -9 10 -11 17 -11 33 0 4 -6 -2 -14 -13 -13 -17 -14 -7 -12
87 2 58 7 115 10 127 4 12 3 22 -2 22 -5 0 -17 -44 -28 -97z m106 -303 c-9 -6
-9 -9 -1 -13 8 -4 8 -5 0 -3 -7 1 -13 9 -15 18 -1 11 3 15 13 11 11 -4 12 -8
3 -13z m-26 -39 c3 -5 0 -11 -7 -14 -8 -3 -14 1 -14 9 0 16 13 19 21 5z m-49
-111 c-3 -5 -1 -10 6 -10 7 0 9 -3 6 -7 -4 -3 -1 -13 6 -21 11 -13 9 -14 -13
-2 -23 12 -24 12 -11 -4 8 -10 31 -26 50 -36 20 -11 30 -19 23 -20 -15 0 -92
50 -92 60 0 4 3 10 8 14 4 4 8 12 8 17 2 16 4 19 10 19 3 0 2 -4 -1 -10z m65
-45 c-8 -10 -7 -16 7 -24 24 -14 7 -14 -19 0 -17 9 -18 13 -7 20 12 7 11 9 -1
9 -13 0 -13 2 0 9 19 13 34 2 20 -14z"/>
<path d="M241 1904 c0 -11 3 -14 6 -6 3 7 2 16 -1 19 -3 4 -6 -2 -5 -13z"/>
<path d="M1818 1903 c0 -5 -2 -15 -2 -23 -1 -8 -7 -14 -14 -12 -7 1 -12 -2
-12 -8 0 -11 30 -14 31 -2 0 4 2 17 5 30 2 12 2 22 -1 22 -3 0 -6 -3 -7 -7z"/>
<path d="M102 1880 c0 -14 2 -19 5 -12 2 6 2 18 0 25 -3 6 -5 1 -5 -13z"/>
<path d="M158 1879 c-14 -14 -15 -19 -4 -19 7 0 19 7 26 15 10 12 16 13 24 4
8 -8 8 -13 -1 -16 -15 -5 -18 -23 -4 -23 13 0 21 27 15 45 -8 20 -35 18 -56
-6z"/>
<path d="M1550 1860 c-9 -6 -10 -10 -3 -10 6 0 15 5 18 10 8 12 4 12 -15 0z"/>
<path d="M92 1820 c0 -19 2 -27 5 -17 2 9 2 25 0 35 -3 9 -5 1 -5 -18z"/>
<path d="M222 1805 c0 -16 2 -22 5 -12 2 9 2 23 0 30 -3 6 -5 -1 -5 -18z"/>
<path d="M309 1823 c-1 -5 -1 -11 -1 -15 1 -3 -5 -12 -13 -18 -19 -16 -19 -26
1 -34 13 -5 14 -4 6 7 -9 10 -8 17 0 25 12 12 20 42 12 42 -2 0 -5 -3 -5 -7z"/>
<path d="M628 1814 c-40 -21 -60 -67 -64 -148 -3 -54 -9 -75 -23 -86 -28 -24
-41 -55 -41 -99 0 -27 5 -43 18 -50 15 -9 10 -17 -39 -66 -31 -30 -71 -76 -88
-102 -17 -27 -35 -53 -40 -59 -6 -7 -23 -41 -39 -76 l-29 -64 43 -133 c42
-129 132 -332 174 -391 14 -19 26 -27 36 -23 15 5 15 7 0 15 -9 5 -14 13 -11
19 4 5 1 9 -5 9 -6 0 -8 5 -5 10 3 6 -1 13 -10 16 -9 4 -14 13 -11 21 3 8 1
11 -4 8 -9 -5 -12 1 -9 21 0 4 -5 10 -12 14 -6 5 -12 26 -13 48 0 22 -4 38 -8
36 -4 -2 -5 -14 -3 -27 4 -22 4 -22 -11 -2 -8 11 -12 25 -9 33 3 8 0 10 -8 6
-6 -4 -5 1 4 12 31 37 34 47 10 35 -11 -7 -21 -8 -21 -2 0 20 76 35 87 17 4
-5 0 -6 -8 -1 -12 8 -12 6 0 -8 7 -9 19 -17 25 -17 7 0 8 3 1 8 -6 4 -10 17
-9 29 1 13 -3 20 -11 16 -16 -6 -29 13 -15 22 5 3 10 1 10 -5 0 -6 4 -9 8 -6
5 3 24 -4 43 -16 32 -19 33 -20 16 -1 -17 20 -16 20 50 15 38 -2 76 -8 85 -13
9 -5 30 -9 47 -9 48 0 56 -7 55 -48 -1 -20 2 -39 7 -42 9 -6 -20 -96 -42 -131
-8 -13 -20 -37 -27 -52 -12 -27 -32 -29 -32 -3 0 17 -60 77 -71 71 -4 -3 -27
8 -50 25 -43 31 -69 38 -69 19 0 -5 30 -24 68 -41 76 -34 112 -63 112 -90 0
-10 7 -18 16 -18 8 0 12 -4 9 -10 -3 -5 7 -2 23 7 28 16 32 16 72 -2 35 -16
45 -17 62 -6 19 12 20 11 14 -6 -4 -12 0 -10 13 7 11 13 18 27 16 30 -2 3 12
6 31 6 40 0 50 8 60 48 5 22 4 27 -6 21 -6 -4 -4 4 5 19 10 15 13 26 7 26 -14
0 -37 -41 -34 -60 2 -12 1 -12 -6 -2 -12 17 -42 22 -64 10 -15 -7 -18 -4 -18
16 0 17 4 24 13 20 9 -3 13 4 11 26 -1 16 3 33 9 37 7 3 9 3 5 -2 -4 -4 -3
-17 3 -28 9 -15 8 -18 -3 -11 -10 6 -10 5 1 -9 11 -13 17 -15 28 -6 11 10 11
15 -2 35 -8 13 -15 26 -15 29 0 12 26 -2 43 -22 10 -13 24 -23 30 -23 7 0 4 5
-5 11 -10 5 -18 14 -18 19 0 11 73 0 81 -13 4 -5 9 -5 13 2 4 6 11 9 16 6 10
-6 -38 -147 -53 -157 -6 -4 -15 -4 -19 -2 -4 3 -8 1 -8 -3 0 -5 -12 -9 -27 -8
-19 0 -29 -6 -31 -20 -3 -15 -1 -17 9 -8 8 6 28 14 45 17 41 9 61 31 69 78 4
21 11 35 16 32 5 -3 9 3 9 13 1 10 6 34 13 53 l13 35 -51 1 c-57 1 -167 42
-173 64 -3 13 -2 13 8 0 8 -10 10 -11 8 -2 -2 8 -8 14 -13 14 -6 0 -18 4 -29
10 -13 7 -16 7 -12 -1 10 -16 1 -14 -46 10 -45 23 -258 66 -345 70 -37 2 -50
6 -46 16 3 7 9 11 13 8 5 -3 10 1 13 7 3 9 9 7 19 -6 10 -12 17 -15 22 -8 3 6
2 13 -4 17 -6 4 -7 11 -4 17 4 7 2 8 -4 4 -7 -4 -12 -2 -12 4 0 8 9 10 26 6
18 -5 24 -3 19 5 -8 12 11 29 33 29 6 0 12 -5 12 -11 0 -5 -4 -8 -9 -4 -5 3
-16 -8 -24 -25 -20 -40 -8 -38 23 4 15 21 30 32 40 28 8 -3 -1 6 -20 20 -19
13 -38 20 -41 15 -3 -4 -13 -1 -22 7 -8 9 -23 13 -31 10 -21 -8 -10 -24 15
-24 17 0 18 -3 7 -20 -12 -18 -13 -19 -20 -2 -5 13 -7 13 -7 2 -1 -12 -3 -13
-10 -1 -12 18 -9 35 11 54 14 15 17 15 29 1 7 -8 18 -13 25 -10 7 3 24 -4 39
-16 14 -11 28 -18 31 -15 3 2 -7 14 -22 26 -34 27 -19 27 21 1 17 -11 34 -20
40 -20 5 0 -14 16 -42 35 -40 27 -51 39 -46 53 6 15 5 16 -13 2 -17 -14 -18
-14 -6 1 10 14 10 18 -5 24 -10 5 -22 7 -26 6 -5 -1 -6 3 -3 8 4 5 0 11 -6 14
-7 3 -3 4 9 4 12 -1 20 -3 18 -6 -3 -2 9 -14 25 -26 16 -12 26 -26 22 -30 -4
-5 -1 -5 6 -1 7 4 24 0 37 -8 44 -29 27 -9 -23 27 -27 19 -49 42 -49 50 0 9 4
14 9 11 5 -3 6 -9 4 -13 -3 -4 3 -12 13 -18 14 -9 18 -8 18 3 0 7 -4 11 -8 8
-4 -2 -10 5 -14 16 -3 11 -12 20 -18 20 -6 0 -1 7 11 16 13 9 21 22 18 29 -3
8 5 16 18 19 26 6 36 31 36 89 0 30 4 37 19 37 11 0 22 -6 24 -12 3 -8 6 -5 6
5 1 10 6 15 11 12 6 -3 10 -2 10 4 0 5 -6 12 -12 14 -10 4 -10 6 0 6 7 1 17
-9 22 -21 7 -20 9 -20 9 -4 1 13 5 16 14 9 18 -14 246 -23 347 -13 19 2 50 0
69 -4 26 -6 32 -5 26 4 -6 9 -4 11 6 4 8 -4 21 -9 29 -11 8 -1 27 -4 42 -7 15
-3 30 -1 33 4 3 5 0 7 -8 4 -8 -3 -18 -1 -21 4 -10 16 35 7 79 -16 41 -22 88
-26 163 -16 38 5 42 9 41 33 l-1 26 -8 -25 c-4 -14 -8 -20 -9 -13 -1 7 -15 9
-38 6 -57 -7 -107 -2 -120 10 -3 4 -15 7 -25 7 -10 0 -18 4 -18 8 0 4 -14 9
-32 10 -17 2 -36 6 -42 10 -6 5 -41 21 -77 36 -70 29 -149 39 -156 20 -5 -15
43 -31 80 -28 15 2 27 -2 27 -8 0 -6 -10 -8 -26 -4 -23 6 -24 5 -14 -14 9 -16
8 -20 -6 -20 -11 0 -14 5 -10 16 5 13 2 15 -14 11 -11 -3 -20 -1 -20 3 0 5
-12 6 -27 3 -16 -3 -36 -6 -45 -7 -9 0 -14 -4 -12 -8 9 -14 -32 -25 -86 -22
-30 1 -56 8 -58 14 -3 7 -9 7 -20 -2 -15 -12 -16 -11 -3 5 12 15 9 21 -24 52
l-38 35 -19 -30 c-10 -17 -20 -30 -23 -30 -4 0 1 10 9 22 20 28 20 39 1 32 -9
-4 -15 0 -15 7 0 11 -2 11 -10 -1 -5 -8 -12 -11 -16 -7 -4 3 -1 13 6 22 7 9
10 18 6 22 -3 3 -6 0 -6 -7 0 -9 -6 -7 -19 6 -10 10 -17 22 -14 27 2 4 -1 7
-6 7 -13 0 -15 27 -3 34 18 11 51 -6 45 -22 -3 -10 1 -8 11 5 14 19 20 20 30
10 8 -6 12 -15 10 -18 -2 -4 5 -9 15 -12 15 -3 18 -1 14 11 -5 11 -3 13 7 7 9
-5 11 -4 6 4 -4 6 -11 9 -16 6 -5 -3 -12 0 -16 6 -5 8 3 10 25 7 17 -2 31 -1
31 4 0 9 -12 11 -54 8 -22 -1 -27 2 -23 13 3 9 1 18 -6 20 -7 2 -8 8 -4 13 5
5 17 -1 28 -15 21 -26 26 -16 5 12 -19 25 -34 21 -54 -13 -15 -24 -21 -27 -32
-17 -10 9 -11 9 -6 0 11 -19 -1 -16 -24 7 -14 14 -16 21 -7 27 14 9 19 43 6
43 -14 0 -11 14 7 36 8 10 13 13 9 7 -3 -7 -1 -13 4 -13 6 0 11 5 11 10 0 18
28 10 33 -9 6 -26 -1 -33 -24 -20 -15 7 -17 6 -13 -5 3 -9 10 -14 14 -13 4 1
8 -2 8 -8 0 -5 -4 -9 -8 -8 -5 2 -8 -7 -7 -18 1 -19 2 -19 18 3 10 12 15 26
13 30 -3 4 1 8 10 8 18 0 15 23 -7 48 -9 10 -17 26 -17 35 0 11 -5 14 -17 10
-11 -5 -14 -3 -9 6 5 7 17 11 27 8 11 -3 19 -1 19 3 0 5 8 11 18 13 11 3 9 5
-8 5 -14 1 -37 -5 -52 -14z m-41 -203 c0 -11 -5 -18 -9 -15 -4 3 -5 11 -1 19
7 21 12 19 10 -4z m84 -4 c-10 -9 -11 -8 -5 6 3 10 9 15 12 12 3 -3 0 -11 -7
-18z m-81 -72 c0 -9 -6 -12 -16 -8 -13 5 -13 7 -2 14 17 11 18 11 18 -6z m20
-30 c0 -2 -10 -10 -22 -16 -21 -11 -22 -11 -9 4 13 16 31 23 31 12z m545 -75
c3 -5 1 -10 -5 -10 -6 0 -8 -6 -4 -12 4 -7 3 -9 -1 -5 -12 10 -15 37 -5 37 5
0 12 -4 15 -10z m-391 -14 c-3 -7 -17 -12 -32 -11 -55 4 -48 9 30 24 4 0 5 -5
2 -13z m430 -4 c2 -4 -5 -9 -17 -9 -17 -2 -19 0 -7 7 18 12 18 12 24 2z m-577
-94 c-3 -8 -6 -5 -6 6 -1 11 2 17 5 13 3 -3 4 -12 1 -19z m-7 -35 c0 -2 -9 2
-20 9 -11 7 -20 19 -20 27 0 9 7 6 20 -9 11 -13 20 -25 20 -27z m-180 -33 c0
-5 -5 -10 -11 -10 -5 0 -7 5 -4 10 3 6 8 10 11 10 2 0 4 -4 4 -10z m47 4 c-3
-3 -12 -4 -19 -1 -8 3 -5 6 6 6 11 1 17 -2 13 -5z m50 0 c-3 -3 -12 -4 -19 -1
-8 3 -5 6 6 6 11 1 17 -2 13 -5z m40 0 c-3 -3 -12 -4 -19 -1 -8 3 -5 6 6 6 11
1 17 -2 13 -5z m-70 -20 c-3 -3 -12 -4 -19 -1 -8 3 -5 6 6 6 11 1 17 -2 13 -5z
m-87 -29 c14 -19 14 -19 -2 -6 -10 7 -18 18 -18 24 0 6 1 8 3 6 1 -2 9 -13 17
-24z m76 3 c4 -7 3 -8 -4 -4 -7 4 -12 2 -12 -3 0 -6 -8 -11 -17 -11 -15 0 -14
2 3 15 23 18 21 17 30 3z m-11 -39 c2 -3 -7 -6 -20 -7 -13 -1 -27 2 -30 7 -5
9 41 9 50 0z m-33 -124 c2 3 5 -1 5 -8 0 -8 -6 -14 -14 -14 -7 0 -11 3 -8 5 3
3 -1 12 -8 21 -10 14 -10 14 4 4 9 -7 18 -11 21 -8z m-73 -49 c10 -12 8 -13
-8 -9 -12 3 -18 9 -15 14 7 12 10 11 23 -5z m70 -12 c-6 -7 -17 -10 -26 -7
-17 7 -2 20 22 20 11 0 12 -4 4 -13z m-38 -151 c13 -16 12 -17 -3 -4 -10 7
-18 15 -18 17 0 8 8 3 21 -13z m445 -56 c-5 8 1 9 24 0 22 -8 28 -16 25 -32
-2 -11 -7 -37 -10 -59 -6 -39 -73 -156 -89 -156 -4 0 -6 7 -2 15 3 9 0 15 -10
15 -10 0 -5 9 14 25 16 14 32 37 35 52 l5 28 -24 -30 c-13 -16 -24 -25 -24
-18 0 6 5 15 11 19 6 3 9 15 6 25 -3 12 -1 17 6 12 6 -4 8 2 5 15 -4 12 -1 22
4 22 6 0 4 8 -3 17 -12 15 -12 16 3 10 21 -8 36 12 17 24 -8 4 -16 4 -20 -3
-4 -7 -9 -7 -13 1 -4 6 -2 11 3 11 6 0 10 3 10 8 -4 21 3 24 17 6 8 -10 13
-14 10 -7z m134 -221 c0 -2 -7 -7 -16 -10 -8 -3 -12 -2 -9 4 6 10 25 14 25 6z"/>
<path d="M2167 1776 c-15 -14 -23 -27 -18 -31 5 -3 19 8 31 25 26 36 22 38
-13 6z"/>
<path d="M1046 1778 c3 -5 10 -6 15 -3 13 9 11 12 -6 12 -8 0 -12 -4 -9 -9z"/>
<path d="M1100 1780 c0 -6 7 -10 15 -10 8 0 15 2 15 4 0 2 -7 6 -15 10 -8 3
-15 1 -15 -4z"/>
<path d="M324 1746 c1 -14 4 -28 7 -31 3 -3 5 6 5 19 -1 14 -4 28 -7 31 -3 3
-5 -6 -5 -19z"/>
<path d="M1023 1742 l-23 -17 29 -16 c33 -19 46 -14 67 26 10 19 10 25 2 18
-7 -6 -21 -13 -32 -17 -14 -5 -17 -2 -12 9 7 20 -4 19 -31 -3z m17 -12 c0 -5
-5 -10 -11 -10 -5 0 -7 5 -4 10 3 6 8 10 11 10 2 0 4 -4 4 -10z m35 -10 c-3
-5 -12 -10 -18 -10 -7 0 -6 4 3 10 19 12 23 12 15 0z"/>
<path d="M83 1715 c0 -22 2 -30 4 -17 2 12 2 30 0 40 -3 9 -5 -1 -4 -23z"/>
<path d="M1493 1743 c9 -2 25 -2 35 0 9 3 1 5 -18 5 -19 0 -27 -2 -17 -5z"/>
<path d="M1542 1695 c-17 -37 -14 -45 4 -12 9 16 14 31 11 33 -2 2 -9 -7 -15
-21z"/>
<path d="M1610 1709 c0 -5 5 -7 10 -4 6 3 10 8 10 11 0 2 -4 4 -10 4 -5 0 -10
-5 -10 -11z"/>
<path d="M702 1697 c-11 -12 -8 -17 17 -25 20 -7 33 -7 37 -1 3 5 1 8 -5 7 -5
-2 -16 5 -23 15 -12 16 -16 17 -26 4z"/>
<path d="M2162 1698 c6 -18 28 -21 28 -4 0 9 -7 16 -16 16 -9 0 -14 -5 -12
-12z"/>
<path d="M211 1684 c0 -11 3 -14 6 -6 3 7 2 16 -1 19 -3 4 -6 -2 -5 -13z"/>
<path d="M1280 1691 c0 -9 30 -24 36 -18 2 1 -6 8 -16 15 -11 7 -20 8 -20 3z"/>
<path d="M357 1679 c7 -7 15 -10 18 -7 3 3 -2 9 -12 12 -14 6 -15 5 -6 -5z"/>
<path d="M1131 1676 c-15 -18 0 -28 16 -10 7 7 9 15 4 18 -5 3 -14 -1 -20 -8z"/>
<path d="M958 1673 c7 -3 16 -2 19 1 4 3 -2 6 -13 5 -11 0 -14 -3 -6 -6z"/>
<path d="M104 1659 c-7 -12 17 -22 53 -24 48 -1 41 22 -8 27 -22 2 -42 0 -45
-3z"/>
<path d="M312 1650 c0 -14 2 -19 5 -12 2 6 2 18 0 25 -3 6 -5 1 -5 -13z"/>
<path d="M1771 1635 c-1 -23 -3 -27 -11 -15 -8 13 -10 12 -10 -2 0 -10 -4 -18
-10 -18 -5 0 -10 -5 -10 -11 0 -6 7 -9 15 -5 18 7 47 -3 40 -14 -2 -4 -16 -5
-30 -2 -15 2 -25 0 -25 -7 0 -7 5 -9 12 -5 8 5 9 2 5 -10 -4 -10 -3 -15 4 -11
5 4 21 0 34 -9 23 -15 24 -15 18 1 -6 15 -4 16 9 6 8 -7 18 -10 21 -6 11 10 8
35 -2 28 -5 -3 -12 -1 -16 5 -4 6 6 10 24 10 17 0 31 4 31 9 0 13 -49 20 -54
7 -3 -7 -8 -6 -15 4 -6 8 -11 11 -12 5 -1 -5 -5 8 -9 30 -6 35 -7 37 -9 10z"/>
<path d="M74 1540 c0 -63 1 -89 3 -57 2 31 2 83 0 115 -2 31 -3 5 -3 -58z"/>
<path d="M2005 1630 c-3 -5 -1 -10 4 -10 6 0 11 5 11 10 0 6 -2 10 -4 10 -3 0
-8 -4 -11 -10z"/>
<path d="M154 1621 c3 -5 -8 -14 -24 -21 -43 -18 -37 -30 13 -29 36 1 38 2 17
9 l-25 8 23 7 c26 8 29 20 6 29 -8 3 -13 2 -10 -3z"/>
<path d="M1725 1620 c3 -5 8 -10 11 -10 2 0 4 5 4 10 0 6 -5 10 -11 10 -5 0
-7 -4 -4 -10z"/>
<path d="M1846 1612 c-3 -5 1 -9 9 -9 8 0 15 4 15 9 0 4 -4 8 -9 8 -6 0 -12
-4 -15 -8z"/>
<path d="M890 1601 c0 -6 4 -13 10 -16 6 -3 7 1 4 9 -7 18 -14 21 -14 7z"/>
<path d="M1711 1594 c0 -11 3 -14 6 -6 3 7 2 16 -1 19 -3 4 -6 -2 -5 -13z"/>
<path d="M665 1560 c-3 -5 -13 -6 -22 -3 -11 4 -14 2 -11 -8 3 -8 11 -13 18
-11 7 2 16 -2 20 -8 5 -8 9 -7 13 4 4 9 2 16 -4 16 -6 0 -7 5 -4 10 3 6 4 10
1 10 -3 0 -7 -4 -11 -10z"/>
<path d="M1676 1545 c5 -11 10 -13 19 -5 9 8 14 7 18 -2 2 -7 8 -10 12 -6 12
12 -5 28 -30 28 -18 0 -23 -4 -19 -15z"/>
<path d="M2172 1547 c-8 -10 -2 -12 28 -12 30 0 36 2 28 12 -6 7 -18 13 -28
13 -10 0 -22 -6 -28 -13z"/>
<path d="M1480 1543 c-8 -2 -21 -7 -29 -9 -8 -2 -12 -7 -9 -9 3 -3 22 1 44 9
35 13 30 21 -6 9z"/>
<path d="M2261 1514 c0 -11 3 -14 6 -6 3 7 2 16 -1 19 -3 4 -6 -2 -5 -13z"/>
<path d="M100 1510 c0 -5 6 -10 13 -10 7 0 22 -7 33 -14 18 -14 18 -15 -13
-26 -18 -7 -33 -18 -33 -25 0 -10 11 -7 40 8 22 12 40 25 40 29 0 4 -18 17
-40 28 -22 11 -40 16 -40 10z"/>
<path d="M1920 1500 c-9 -6 -10 -10 -3 -10 6 0 15 5 18 10 8 12 4 12 -15 0z"/>
<path d="M1484 1465 c35 -51 42 -57 23 -19 -9 17 -23 37 -33 44 -9 8 -4 -3 10
-25z"/>
<path d="M2160 1490 c0 -5 5 -10 11 -10 5 0 7 5 4 10 -3 6 -8 10 -11 10 -2 0
-4 -4 -4 -10z"/>
<path d="M1650 1464 c0 -8 5 -12 10 -9 6 4 8 11 5 16 -9 14 -15 11 -15 -7z"/>
<path d="M354 1456 c11 -9 24 -16 30 -16 12 0 7 5 -24 19 -24 11 -24 11 -6 -3z"/>
<path d="M1626 1452 c-2 -4 -1 -14 5 -22 7 -12 9 -10 9 8 0 23 -5 28 -14 14z"/>
<path d="M793 1436 c0 -8 4 -14 8 -13 4 1 7 -2 7 -8 1 -12 41 -23 64 -17 17 4
14 32 -4 32 -5 0 -7 -4 -3 -9 3 -5 1 -12 -5 -16 -5 -3 -10 -1 -10 5 0 6 -5 8
-12 4 -8 -5 -9 -2 -5 10 4 9 3 14 -2 11 -5 -3 -12 -1 -16 5 -9 15 -22 12 -22
-4z"/>
<path d="M342 1431 c-11 -7 -11 -9 0 -14 9 -3 15 1 15 9 0 8 -1 14 -1 14 -1 0
-7 -4 -14 -9z"/>
<path d="M1886 1426 c3 -9 11 -16 16 -16 13 0 5 23 -10 28 -7 2 -10 -2 -6 -12z"/>
<path d="M2252 1400 c0 -19 2 -27 5 -17 2 9 2 25 0 35 -3 9 -5 1 -5 -18z"/>
<path d="M2150 1416 c0 -3 9 -10 20 -16 11 -6 20 -8 20 -6 0 3 -9 10 -20 16
-11 6 -20 8 -20 6z"/>
<path d="M213 1365 c0 -27 2 -38 4 -22 2 15 2 37 0 50 -2 12 -4 0 -4 -28z"/>
<path d="M1571 1384 c0 -11 3 -14 6 -6 3 7 2 16 -1 19 -3 4 -6 -2 -5 -13z"/>
<path d="M1620 1388 c0 -4 7 -8 15 -8 8 0 15 4 15 8 0 5 -7 9 -15 9 -8 0 -15
-4 -15 -9z"/>
<path d="M2122 1370 c0 -19 2 -27 5 -17 2 9 2 25 0 35 -3 9 -5 1 -5 -18z"/>
<path d="M2205 1380 c3 -5 -10 -12 -30 -16 -19 -3 -35 -12 -35 -19 0 -10 11
-9 45 4 48 17 55 25 29 35 -8 3 -12 2 -9 -4z"/>
<path d="M166 1372 c-3 -5 -17 -7 -31 -4 -15 2 -25 0 -25 -7 0 -14 57 -15 65
0 4 6 5 13 2 15 -3 3 -8 1 -11 -4z"/>
<path d="M405 1370 c3 -5 8 -10 11 -10 2 0 4 5 4 10 0 6 -5 10 -11 10 -5 0 -7
-4 -4 -10z"/>
<path d="M81 1334 c0 -11 3 -14 6 -6 3 7 2 16 -1 19 -3 4 -6 -2 -5 -13z"/>
<path d="M1620 1340 c0 -5 5 -10 11 -10 5 0 7 5 4 10 -3 6 -8 10 -11 10 -2 0
-4 -4 -4 -10z"/>
<path d="M128 1323 c-33 -8 -18 -18 27 -18 26 0 44 4 42 10 -4 11 -42 16 -69
8z"/>
<path d="M2140 1268 c0 -5 8 -8 18 -8 9 0 27 -3 40 -6 12 -4 22 -2 22 4 0 5
-18 12 -40 14 -22 2 -40 0 -40 -4z"/>
<path d="M162 1229 c-24 -17 -41 -33 -38 -36 3 -3 18 4 34 16 17 12 35 21 41
21 6 0 11 7 11 15 0 19 3 20 -48 -16z"/>
<path d="M1338 1243 c7 -3 16 -2 19 1 4 3 -2 6 -13 5 -11 0 -14 -3 -6 -6z"/>
<path d="M590 1210 c0 -5 5 -10 11 -10 5 0 7 5 4 10 -3 6 -8 10 -11 10 -2 0
-4 -4 -4 -10z"/>
<path d="M305 1190 c3 -5 8 -10 11 -10 2 0 4 5 4 10 0 6 -5 10 -11 10 -5 0 -7
-4 -4 -10z"/>
<path d="M158 1183 c7 -3 16 -2 19 1 4 3 -2 6 -13 5 -11 0 -14 -3 -6 -6z"/>
<path d="M205 1170 c3 -5 8 -10 11 -10 2 0 4 5 4 10 0 6 -5 10 -11 10 -5 0 -7
-4 -4 -10z"/>
<path d="M2342 1160 c0 -14 2 -19 5 -12 2 6 2 18 0 25 -3 6 -5 1 -5 -13z"/>
<path d="M1060 1162 c0 -4 38 -25 85 -47 94 -45 117 -45 30 0 -30 15 -53 31
-50 35 3 4 -5 10 -18 14 -30 8 -47 7 -47 -2z"/>
<path d="M2120 1140 c0 -5 7 -10 15 -10 8 0 15 -5 15 -12 0 -9 3 -9 11 -1 6 6
19 9 28 6 14 -4 14 -3 1 5 -25 15 -70 23 -70 12z"/>
<path d="M1171 1136 c2 -2 15 -9 29 -15 24 -11 24 -11 6 3 -16 13 -49 24 -35
12z"/>
<path d="M1760 1103 c0 -14 33 -73 41 -73 3 0 14 10 25 22 18 22 18 22 0 8
-17 -13 -20 -13 -30 3 -22 37 -35 52 -36 40z"/>
<path d="M181 1078 c-22 -6 -30 -13 -24 -19 6 -6 20 -6 38 1 19 7 31 7 40 0
11 -9 12 -7 8 9 -6 23 -12 24 -62 9z"/>
<path d="M567 1069 c7 -7 15 -10 18 -7 3 3 -2 9 -12 12 -14 6 -15 5 -6 -5z"/>
<path d="M1284 1072 c8 -13 66 -56 66 -49 0 3 -17 17 -37 33 -20 15 -33 23
-29 16z"/>
<path d="M1275 1035 c17 -14 35 -25 40 -25 6 0 -3 11 -20 25 -16 13 -34 24
-40 24 -5 0 4 -11 20 -24z"/>
<path d="M160 1020 c0 -5 5 -10 11 -10 5 0 7 5 4 10 -3 6 -8 10 -11 10 -2 0
-4 -4 -4 -10z"/>
<path d="M1670 1020 c-13 -8 -12 -10 3 -10 9 0 17 5 17 10 0 12 -1 12 -20 0z"/>
<path d="M1375 990 c10 -11 20 -20 23 -20 3 0 -3 9 -13 20 -10 11 -20 20 -23
20 -3 0 3 -9 13 -20z"/>
<path d="M2095 1000 c-2 -4 13 -12 35 -18 23 -5 40 -6 40 -1 0 5 -1 9 -3 9 -1
0 -17 4 -34 9 -18 5 -35 6 -38 1z"/>
<path d="M1967 978 c36 -25 40 -33 19 -41 -18 -7 -56 3 -56 14 0 5 -7 6 -15 3
-8 -4 -21 -1 -29 5 -11 9 -15 7 -19 -10 -3 -12 -10 -18 -16 -14 -6 3 -11 -2
-11 -12 0 -10 -8 -30 -17 -43 -10 -14 -17 -27 -17 -30 1 -3 0 -9 -1 -15 -11
-34 -14 -37 -14 -11 -1 40 -11 28 -15 -20 -2 -22 -14 -58 -27 -79 -12 -23 -15
-33 -7 -25 9 8 30 42 48 75 18 33 41 72 51 87 11 14 19 30 19 35 0 4 7 16 14
26 12 16 19 16 59 5 40 -10 48 -10 65 5 10 9 24 17 30 17 7 0 12 4 12 10 0 5
-7 7 -15 4 -8 -3 -28 4 -44 15 -16 12 -33 21 -37 21 -5 0 6 -10 23 -22z"/>
<path d="M220 957 c-43 -13 -43 -13 -36 -26 4 -6 18 -4 36 6 17 8 37 12 45 9
9 -3 12 0 8 10 -6 16 -5 16 -53 1z"/>
<path d="M1344 948 l-19 -21 28 18 c28 18 33 25 19 25 -5 0 -17 -10 -28 -22z"/>
<path d="M2123 947 c5 -15 37 -22 37 -9 0 5 -9 12 -21 15 -13 3 -19 1 -16 -6z"/>
<path d="M581 921 c-8 -5 -9 -11 -3 -15 5 -3 12 1 16 9 6 17 6 18 -13 6z"/>
<path d="M1475 900 c9 -16 18 -30 21 -30 2 0 -2 14 -11 30 -9 17 -18 30 -21
30 -2 0 2 -13 11 -30z"/>
<path d="M1347 867 c-26 -18 -42 -34 -36 -36 6 -2 31 10 54 27 l43 30 19 -20
c18 -20 17 -21 -16 -49 -33 -27 -36 -28 -55 -12 -12 9 -2 -2 21 -26 l43 -43
55 35 c52 32 54 35 30 40 -19 3 -25 1 -21 -9 7 -17 -15 -18 -33 -1 -12 10 -13
8 -7 -8 4 -11 4 -16 0 -12 -4 4 -13 2 -20 -4 -8 -7 -14 -7 -19 1 -8 13 34 62
46 54 5 -3 9 -1 9 4 0 9 -53 62 -61 62 -2 -1 -25 -15 -52 -33z"/>
<path d="M1236 874 c-23 -23 -20 -30 4 -9 11 10 20 20 20 22 0 7 -9 2 -24 -13z"/>
<path d="M245 860 c-31 -15 -36 -20 -23 -25 10 -4 24 0 33 9 9 9 23 16 31 16
8 0 14 5 14 10 0 13 -8 12 -55 -10z"/>
<path d="M870 865 c-10 -12 -10 -15 4 -15 9 0 16 7 16 15 0 8 -2 15 -4 15 -2
0 -9 -7 -16 -15z"/>
<path d="M2050 865 c0 -9 8 -18 18 -21 9 -3 25 -10 34 -15 13 -6 20 -4 28 10
8 16 7 18 -10 14 -11 -3 -31 2 -45 11 -22 15 -25 15 -25 1z"/>
<path d="M1511 843 c7 -12 15 -20 18 -17 3 2 -3 12 -13 22 -17 16 -18 16 -5
-5z"/>
<path d="M273 833 c4 -3 -3 -21 -14 -40 -29 -47 -8 -41 24 7 25 39 25 40 5 40
-12 0 -18 -3 -15 -7z"/>
<path d="M895 830 c3 -5 8 -10 11 -10 2 0 4 5 4 10 0 6 -5 10 -11 10 -5 0 -7
-4 -4 -10z"/>
<path d="M930 810 c0 -6 7 -10 15 -10 8 0 15 2 15 4 0 2 -7 6 -15 10 -8 3 -15
1 -15 -4z"/>
<path d="M1188 802 c-5 -18 -3 -19 23 -10 16 5 29 14 29 19 0 13 -17 11 -26
-2 -5 -8 -9 -8 -14 1 -5 8 -9 5 -12 -8z"/>
<path d="M296 791 c-4 -5 3 -7 14 -4 23 6 26 13 6 13 -8 0 -17 -4 -20 -9z"/>
<path d="M2027 759 c7 -7 15 -10 18 -7 3 3 -2 9 -12 12 -14 6 -15 5 -6 -5z"/>
<path d="M1211 746 c-10 -12 -8 -13 8 -9 12 3 21 9 21 14 0 14 -16 11 -29 -5z"/>
<path d="M2065 740 c3 -6 -1 -10 -9 -10 -26 0 -67 -20 -61 -29 3 -6 17 -4 33
5 15 7 35 14 45 14 21 0 22 16 1 24 -8 3 -12 2 -9 -4z"/>
<path d="M1058 733 c7 -3 16 -2 19 1 4 3 -2 6 -13 5 -11 0 -14 -3 -6 -6z"/>
<path d="M1917 675 c-15 -30 -25 -55 -22 -55 7 0 57 101 53 106 -2 2 -16 -21
-31 -51z"/>
<path d="M281 684 c0 -11 3 -14 6 -6 3 7 2 16 -1 19 -3 4 -6 -2 -5 -13z"/>
<path d="M321 687 c-1 -10 -8 -20 -16 -23 -8 -4 -13 -10 -10 -14 3 -5 23 1 44
13 22 12 37 25 35 29 -3 5 -14 4 -24 -2 -13 -7 -20 -6 -23 3 -3 7 -6 5 -6 -6z"/>
<path d="M1210 685 c-11 -13 -10 -14 4 -9 9 3 16 10 16 15 0 13 -6 11 -20 -6z"/>
<path d="M1946 685 c-9 -26 -7 -32 5 -12 6 10 9 21 6 23 -2 3 -7 -2 -11 -11z"/>
<path d="M690 681 c0 -6 4 -13 10 -16 6 -3 7 1 4 9 -7 18 -14 21 -14 7z"/>
<path d="M1710 665 c-7 -9 -10 -18 -7 -21 3 -3 10 4 17 15 13 25 8 27 -10 6z"/>
<path d="M1925 639 c-4 -6 -5 -12 -2 -15 2 -3 7 2 10 11 7 17 1 20 -8 4z"/>
<path d="M1619 621 c11 -7 11 -9 0 -13 -24 -8 10 -39 39 -36 39 5 38 27 -2 43
-39 16 -59 20 -37 6z m48 -27 c-3 -3 -12 -4 -19 -1 -8 3 -5 6 6 6 11 1 17 -2
13 -5z"/>
<path d="M1945 610 c3 -5 24 -10 46 -10 21 0 39 5 39 10 0 6 -21 10 -46 10
-27 0 -43 -4 -39 -10z"/>
<path d="M390 602 c0 -6 -10 -12 -22 -14 -12 -2 -23 -10 -26 -18 -3 -12 -2
-12 8 -3 7 6 19 9 26 6 14 -5 31 23 20 34 -3 4 -6 1 -6 -5z"/>
<path d="M1256 595 c-9 -26 -7 -32 5 -12 6 10 9 21 6 23 -2 3 -7 -2 -11 -11z"/>
<path d="M393 556 c-18 -11 -33 -27 -33 -34 0 -8 14 -2 38 15 20 15 38 28 40
29 2 1 0 4 -5 7 -4 2 -23 -5 -40 -17z"/>
<path d="M1986 547 c3 -10 9 -15 12 -12 3 3 0 11 -7 18 -10 9 -11 8 -5 -6z"/>
<path d="M1688 529 c29 -11 18 -33 -14 -26 -12 2 -29 0 -36 -5 -10 -7 -8 -8 5
-4 25 8 21 -8 -5 -19 -14 -6 -24 -21 -26 -37 -4 -34 15 -71 31 -61 18 11 51
12 63 1 8 -5 14 -3 18 7 3 9 2 14 -3 10 -5 -3 -23 6 -39 20 -35 30 -49 31 -56
8 -3 -11 -4 -7 -3 7 1 17 8 25 19 24 10 -1 16 2 13 6 -6 9 55 36 73 32 6 -2
12 2 12 7 0 6 11 6 30 1 17 -5 30 -5 30 -1 0 4 -27 15 -60 24 -65 18 -89 21
-52 6z"/>
<path d="M2015 519 c-4 -6 -5 -12 -2 -15 2 -3 7 2 10 11 7 17 1 20 -8 4z"/>
<path d="M658 513 c7 -3 16 -2 19 1 4 3 -2 6 -13 5 -11 0 -14 -3 -6 -6z"/>
<path d="M1810 490 c-12 -16 -19 -30 -16 -30 2 0 14 14 26 30 12 17 19 30 16
30 -2 0 -14 -13 -26 -30z"/>
<path d="M1890 510 c0 -5 5 -10 10 -10 6 0 10 5 10 10 0 6 -4 10 -10 10 -5 0
-10 -4 -10 -10z"/>
<path d="M450 506 c0 -2 7 -7 16 -10 8 -3 12 -2 9 4 -6 10 -25 14 -25 6z"/>
<path d="M568 493 c6 -2 18 -2 25 0 6 3 1 5 -13 5 -14 0 -19 -2 -12 -5z"/>
<path d="M755 490 c-3 -5 2 -10 11 -10 15 0 14 -4 -6 -25 -37 -39 -17 -39 24
0 21 19 30 32 22 29 -9 -4 -23 -1 -30 5 -10 8 -16 9 -21 1z"/>
<path d="M1900 480 c-22 -6 -23 -8 -7 -15 12 -5 24 -2 35 9 17 17 12 18 -28 6z"/>
<path d="M477 463 c-11 -11 -17 -13 -17 -5 0 7 -5 12 -11 12 -5 0 -7 -5 -3
-12 4 -6 -1 -17 -10 -24 -9 -6 -13 -15 -8 -18 5 -3 20 3 33 13 13 10 29 20 36
22 7 2 9 9 5 16 -6 10 -12 9 -25 -4z"/>
<path d="M821 464 c-16 -12 -19 -19 -12 -28 6 -7 8 -16 4 -19 -3 -4 -3 -7 0
-7 8 0 40 60 35 66 -2 2 -14 -4 -27 -12z"/>
<path d="M862 455 c0 -16 2 -22 5 -12 2 9 2 23 0 30 -3 6 -5 -1 -5 -18z"/>
<path d="M1805 450 c-4 -6 -10 -8 -15 -5 -5 3 -11 1 -14 -4 -8 -13 22 -7 36 7
7 7 9 12 6 12 -4 0 -10 -5 -13 -10z"/>
<path d="M380 436 c0 -2 8 -10 18 -17 15 -13 16 -12 3 4 -13 16 -21 21 -21 13z"/>
<path d="M550 437 c0 -2 15 -16 33 -33 l32 -29 -29 33 c-28 30 -36 37 -36 29z"/>
<path d="M91 394 c0 -11 3 -14 6 -6 3 7 2 16 -1 19 -3 4 -6 -2 -5 -13z"/>
<path d="M660 361 c25 -23 50 -41 55 -41 10 1 -11 19 -70 60 -16 12 -10 3 15
-19z"/>
<path d="M1090 384 c0 -8 5 -12 10 -9 6 3 10 10 10 16 0 5 -4 9 -10 9 -5 0
-10 -7 -10 -16z"/>
<path d="M1630 349 c0 -5 5 -7 10 -4 6 3 10 2 10 -4 0 -5 -24 -23 -52 -40 -29
-17 -48 -31 -43 -31 6 0 37 17 69 37 50 31 56 38 40 44 -27 11 -34 10 -34 -2z"/>
<path d="M1002 330 c0 -14 2 -19 5 -12 2 6 2 18 0 25 -3 6 -5 1 -5 -13z"/>
<path d="M1030 333 c0 -7 4 -13 9 -13 5 0 11 6 14 13 3 8 -1 14 -9 14 -8 0
-14 -6 -14 -14z"/>
<path d="M945 308 c1 -13 5 -22 9 -21 29 7 31 10 17 26 -19 23 -28 21 -26 -5z"/>
<path d="M1726 321 c-6 -9 41 -61 55 -61 14 0 11 6 -20 39 -16 17 -32 27 -35
22z"/>
<path d="M1869 313 c-13 -16 -12 -17 4 -4 16 13 21 21 13 21 -2 0 -10 -8 -17
-17z"/>
<path d="M592 308 c-15 -15 -16 -55 -1 -64 7 -4 10 -1 7 7 -9 24 11 49 40 49
21 0 24 2 12 10 -20 13 -44 12 -58 -2z"/>
<path d="M1395 300 c-3 -5 -15 -10 -26 -10 -10 0 -19 -4 -19 -10 0 -5 4 -10 9
-10 10 0 59 39 49 40 -4 0 -10 -4 -13 -10z"/>
<path d="M1695 291 c-5 -9 0 -20 16 -32 31 -24 51 -24 23 -1 -11 10 -23 24
-26 32 -4 12 -6 12 -13 1z"/>
<path d="M540 255 c19 -19 36 -35 39 -35 3 0 -10 16 -29 35 -19 19 -36 35 -39
35 -3 0 10 -16 29 -35z"/>
<path d="M643 255 c-12 -19 -18 -37 -12 -40 5 -4 9 -2 9 4 0 5 12 23 26 40 16
19 21 31 12 31 -7 -1 -23 -16 -35 -35z"/>
<path d="M861 281 c-9 -6 -10 -11 -2 -15 6 -4 11 -2 11 4 0 6 5 8 12 4 7 -4 8
-3 4 4 -8 14 -7 14 -25 3z"/>
<path d="M1494 275 c-10 -8 -14 -15 -8 -15 6 0 17 7 24 15 16 19 9 19 -16 0z"/>
<path d="M1447 263 c-4 -3 -7 -11 -7 -17 0 -6 5 -5 12 2 6 6 9 14 7 17 -3 3
-9 2 -12 -2z"/>
<path d="M726 247 c4 -12 -1 -25 -15 -38 -12 -12 -18 -25 -14 -32 5 -8 9 -7
11 6 4 19 27 23 37 7 4 -6 2 -17 -4 -24 -6 -7 -8 -16 -4 -19 9 -10 25 -9 19 1
-3 5 4 21 15 38 21 33 24 44 9 44 -5 0 -10 -7 -10 -16 0 -22 -24 -12 -28 12
-2 10 -8 24 -14 29 -6 6 -7 4 -2 -8z"/>
<path d="M1500 250 c-8 -5 -10 -10 -5 -10 6 0 17 5 25 10 8 5 11 10 5 10 -5 0
-17 -5 -25 -10z"/>
<path d="M1620 251 c0 -6 5 -13 10 -16 8 -5 7 -12 -2 -23 -11 -13 -11 -14 1
-7 9 5 19 2 28 -10 19 -27 16 1 -4 36 -17 29 -33 38 -33 20z"/>
<path d="M1510 181 c10 -21 -3 -40 -15 -21 -3 5 -14 10 -23 10 -16 -1 -16 -1
0 -11 9 -5 15 -15 12 -23 -3 -7 1 -18 9 -24 11 -9 13 -7 13 10 -1 11 5 23 12
25 6 3 12 -2 12 -11 0 -9 6 -16 14 -16 10 0 9 9 -6 40 -11 22 -24 40 -29 40
-6 0 -5 -8 1 -19z"/>
<path d="M843 180 c-17 -7 -23 -17 -22 -37 1 -21 3 -23 6 -8 3 11 15 28 26 37
24 20 22 21 -10 8z"/>
<path d="M884 171 c14 -22 -3 -61 -26 -61 -12 0 -19 -3 -15 -6 3 -4 18 -4 32
0 20 5 25 13 25 36 0 16 -5 32 -12 36 -7 4 -8 3 -4 -5z"/>
<path d="M680 156 c0 -3 9 -10 20 -16 11 -6 20 -8 20 -6 0 3 -9 10 -20 16 -11
6 -20 8 -20 6z"/>
<path d="M1058 153 c6 -2 18 -2 25 0 6 3 1 5 -13 5 -14 0 -19 -2 -12 -5z"/>
<path d="M1268 153 c6 -2 18 -2 25 0 6 3 1 5 -13 5 -14 0 -19 -2 -12 -5z"/>
<path d="M1400 135 c7 -8 10 -26 7 -40 -3 -16 0 -24 7 -22 16 5 20 58 4 68
-21 14 -32 10 -18 -6z"/>
<path d="M1344 124 c3 -9 6 -18 6 -20 0 -3 4 -3 10 1 11 7 2 35 -12 35 -6 0
-7 -7 -4 -16z"/>
<path d="M1620 130 c-9 -6 -10 -10 -3 -10 6 0 15 5 18 10 8 12 4 12 -15 0z"/>
<path d="M1070 113 c0 -10 -3 -28 -6 -40 -8 -29 11 -30 27 -2 9 17 8 20 -1 14
-10 -6 -12 -1 -8 19 3 14 1 26 -3 26 -5 0 -9 -8 -9 -17z"/>
<path d="M1150 119 c0 -5 5 -7 10 -4 6 3 10 8 10 11 0 2 -4 4 -10 4 -5 0 -10
-5 -10 -11z"/>
<path d="M1222 118 c-15 -15 -15 -51 0 -66 19 -19 46 -14 64 13 16 24 16 27
-1 45 -20 23 -45 26 -63 8z m53 -9 c4 -5 4 -21 1 -35 -8 -30 -42 -32 -51 -4
-11 35 33 68 50 39z"/>
<path d="M1108 115 c-7 -7 24 -75 34 -75 4 0 8 4 8 10 0 15 -36 71 -42 65z"/>
<path d="M845 71 c22 -10 51 -21 65 -25 14 -3 7 2 -15 13 -22 10 -51 21 -65
25 -14 3 -7 -2 15 -13z"/>
<path d="M1008 23 c7 -3 16 -2 19 1 4 3 -2 6 -13 5 -11 0 -14 -3 -6 -6z"/>
<path d="M1265 20 c-27 -7 -27 -8 -5 -8 14 0 39 4 55 8 27 7 27 8 5 8 -14 0
-38 -4 -55 -8z"/>
<path d="M1058 13 c12 -2 30 -2 40 0 9 3 -1 5 -23 4 -22 0 -30 -2 -17 -4z"/>
</g>
</svg>
